<svg version="1.1" viewBox="0.0 0.0 755.0 448.0" fill="none" stroke="none" stroke-linecap="square" stroke-miterlimit="10" width="755" height="448" xmlns:xlink="http://www.w3.org/1999/xlink" xmlns="http://www.w3.org/2000/svg"><path fill="#ffffff" d="M0 0L755.0 0L755.0 448.0L0 448.0L0 0Z" fill-rule="nonzero"/><path stroke="#cccccc" stroke-width="1.0" stroke-linecap="butt" d="M198.5 68.5L198.5 373.5" fill-rule="nonzero"/><path stroke="#cccccc" stroke-width="1.0" stroke-linecap="butt" d="M350.5 68.5L350.5 373.5" fill-rule="nonzero"/><path stroke="#cccccc" stroke-width="1.0" stroke-linecap="butt" d="M502.5 68.5L502.5 373.5" fill-rule="nonzero"/><path stroke="#cccccc" stroke-width="1.0" stroke-linecap="butt" d="M654.5 68.5L654.5 373.5" fill-rule="nonzero"/><path stroke="#cccccc" stroke-width="1.0" stroke-linecap="butt" d="M115.5 373.5L661.5 373.5" fill-rule="nonzero"/><path stroke="#cccccc" stroke-width="1.0" stroke-linecap="butt" d="M115.5 322.5L661.5 322.5" fill-rule="nonzero"/><path stroke="#cccccc" stroke-width="1.0" stroke-linecap="butt" d="M115.5 271.5L661.5 271.5" fill-rule="nonzero"/><path stroke="#cccccc" stroke-width="1.0" stroke-linecap="butt" d="M115.5 220.5L661.5 220.5" fill-rule="nonzero"/><path stroke="#cccccc" stroke-width="1.0" stroke-linecap="butt" d="M115.5 170.5L661.5 170.5" fill-rule="nonzero"/><path stroke="#cccccc" stroke-width="1.0" stroke-linecap="butt" d="M115.5 119.5L661.5 119.5" fill-rule="nonzero"/><path stroke="#cccccc" stroke-width="1.0" stroke-linecap="butt" d="M115.5 68.5L661.5 68.5" fill-rule="nonzero"/><path stroke="#e6e6e6" stroke-width="1.0" stroke-linecap="butt" d="M115.5 327.5L661.5 327.5" fill-rule="nonzero"/><path stroke="#e6e6e6" stroke-width="1.0" stroke-linecap="butt" d="M115.5 334.5L661.5 334.5" fill-rule="nonzero"/><path stroke="#e6e6e6" stroke-width="1.0" stroke-linecap="butt" d="M115.5 342.5L661.5 342.5" fill-rule="nonzero"/><path stroke="#e6e6e6" stroke-width="1.0" stroke-linecap="butt" d="M115.5 358.5L661.5 358.5" fill-rule="nonzero"/><path stroke="#e6e6e6" stroke-width="1.0" stroke-linecap="butt" d="M115.5 276.5L661.5 276.5" fill-rule="nonzero"/><path stroke="#e6e6e6" stroke-width="1.0" stroke-linecap="butt" d="M115.5 283.5L661.5 283.5" fill-rule="nonzero"/><path stroke="#e6e6e6" stroke-width="1.0" stroke-linecap="butt" d="M115.5 292.5L661.5 292.5" fill-rule="nonzero"/><path stroke="#e6e6e6" stroke-width="1.0" stroke-linecap="butt" d="M115.5 307.5L661.5 307.5" fill-rule="nonzero"/><path stroke="#e6e6e6" stroke-width="1.0" stroke-linecap="butt" d="M115.5 225.5L661.5 225.5" fill-rule="nonzero"/><path stroke="#e6e6e6" stroke-width="1.0" stroke-linecap="butt" d="M115.5 232.5L661.5 232.5" fill-rule="nonzero"/><path stroke="#e6e6e6" stroke-width="1.0" stroke-linecap="butt" d="M115.5 241.5L661.5 241.5" fill-rule="nonzero"/><path stroke="#e6e6e6" stroke-width="1.0" stroke-linecap="butt" d="M115.5 256.5L661.5 256.5" fill-rule="nonzero"/><path stroke="#e6e6e6" stroke-width="1.0" stroke-linecap="butt" d="M115.5 175.5L661.5 175.5" fill-rule="nonzero"/><path stroke="#e6e6e6" stroke-width="1.0" stroke-linecap="butt" d="M115.5 181.5L661.5 181.5" fill-rule="nonzero"/><path stroke="#e6e6e6" stroke-width="1.0" stroke-linecap="butt" d="M115.5 190.5L661.5 190.5" fill-rule="nonzero"/><path stroke="#e6e6e6" stroke-width="1.0" stroke-linecap="butt" d="M115.5 205.5L661.5 205.5" fill-rule="nonzero"/><path stroke="#e6e6e6" stroke-width="1.0" stroke-linecap="butt" d="M115.5 124.5L661.5 124.5" fill-rule="nonzero"/><path stroke="#e6e6e6" stroke-width="1.0" stroke-linecap="butt" d="M115.5 130.5L661.5 130.5" fill-rule="nonzero"/><path stroke="#e6e6e6" stroke-width="1.0" stroke-linecap="butt" d="M115.5 139.5L661.5 139.5" fill-rule="nonzero"/><path stroke="#e6e6e6" stroke-width="1.0" stroke-linecap="butt" d="M115.5 154.5L661.5 154.5" fill-rule="nonzero"/><path stroke="#e6e6e6" stroke-width="1.0" stroke-linecap="butt" d="M115.5 73.5L661.5 73.5" fill-rule="nonzero"/><path stroke="#e6e6e6" stroke-width="1.0" stroke-linecap="butt" d="M115.5 79.5L661.5 79.5" fill-rule="nonzero"/><path stroke="#e6e6e6" stroke-width="1.0" stroke-linecap="butt" d="M115.5 88.5L661.5 88.5" fill-rule="nonzero"/><path stroke="#e6e6e6" stroke-width="1.0" stroke-linecap="butt" d="M115.5 103.5L661.5 103.5" fill-rule="nonzero"/><clipPath id="id_0"><path d="M115.4 68.333336L661.58 68.333336L661.58 373.6L115.4 373.6L115.4 68.333336Z" clip-rule="nonzero"/></clipPath><path stroke="#4285f4" stroke-width="4.0" stroke-linecap="butt" clip-path="url(#id_0)" d="M350.45215 227.76967L350.45215 227.76967" fill-rule="nonzero"/><path stroke="#ea4335" stroke-width="4.0" stroke-linecap="butt" clip-path="url(#id_0)" d="M274.37646 178.97083L350.45215 101.87323L426.52786 103.321976M654.75494 143.32965L654.75494 143.32965" fill-rule="nonzero"/><path stroke="#fbbc04" stroke-width="4.0" stroke-linecap="butt" clip-path="url(#id_0)" d="M198.30075 358.28427L274.37646 209.68834L350.45215 250.56221" fill-rule="nonzero"/><path stroke="#34a853" stroke-width="4.0" stroke-linecap="butt" clip-path="url(#id_0)" d="M198.30075 261.5978L198.30075 261.5978M350.45215 150.14604L350.45215 150.14604M502.60355 228.47215L502.60355 228.47215" fill-rule="nonzero"/><path stroke="#ff6d01" stroke-width="4.0" stroke-linecap="butt" clip-path="url(#id_0)" d="M198.30075 209.91496L274.37646 115.50453L350.45215 129.57544L426.52786 166.97191L502.60355 124.06062L578.67926 160.52817" fill-rule="nonzero"/><path stroke="#46bdc6" stroke-width="4.0" stroke-linecap="butt" clip-path="url(#id_0)" d="M274.37646 183.31473L350.45215 195.5927" fill-rule="nonzero"/><path stroke="#7baaf7" stroke-width="4.0" stroke-linecap="butt" clip-path="url(#id_0)" d="M274.37646 358.28427L350.45215 154.90836L426.52786 191.7318" fill-rule="nonzero"/><path stroke="#f07b72" stroke-width="4.0" stroke-linecap="butt" clip-path="url(#id_0)" d="M122.22506 232.92686L198.30075 358.28427L274.37646 182.64943L350.45215 137.43648L426.52786 262.59265L502.60355 120.05174L578.67926 151.71959" fill-rule="nonzero"/><path stroke="#fcd04f" stroke-width="4.0" stroke-linecap="butt" clip-path="url(#id_0)" d="M122.22506 122.07642L198.30075 122.41406L274.37646 80.56524L350.45215 79.05547L426.52786 79.66659L502.60355 101.98116L578.67926 127.71807L654.75494 172.63156" fill-rule="nonzero"/><path stroke="#71c287" stroke-width="4.0" stroke-linecap="butt" clip-path="url(#id_0)" d="M122.22506 200.69386L198.30075 148.82605L274.37646 124.48937L350.45215 114.19269L426.52786 126.944L502.60355 315.28757L578.67926 172.08553L654.75494 373.6" fill-rule="nonzero"/><path fill="#4285f4" clip-path="url(#id_0)" d="M354.95215 227.76967C354.95215 230.25494 352.93744 232.26967 350.45215 232.26967C347.96686 232.26967 345.95215 230.25494 345.95215 227.76967C345.95215 225.2844 347.96686 223.26967 350.45215 223.26967C352.93744 223.26967 354.95215 225.2844 354.95215 227.76967Z" fill-rule="nonzero"/><path fill="#ea4335" clip-path="url(#id_0)" d="M278.87646 178.97083C278.87646 181.4561 276.86172 183.47083 274.37646 183.47083C271.89117 183.47083 269.87646 181.4561 269.87646 178.97083C269.87646 176.48553 271.89117 174.47083 274.37646 174.47083C276.86172 174.47083 278.87646 176.48553 278.87646 178.97083Z" fill-rule="nonzero"/><path fill="#ea4335" clip-path="url(#id_0)" d="M354.95215 101.87323C354.95215 104.35851 352.93744 106.37323 350.45215 106.37323C347.96686 106.37323 345.95215 104.35851 345.95215 101.87323C345.95215 99.38795 347.96686 97.37323 350.45215 97.37323C352.93744 97.37323 354.95215 99.38795 354.95215 101.87323Z" fill-rule="nonzero"/><path fill="#ea4335" clip-path="url(#id_0)" d="M431.02786 103.321976C431.02786 105.80726 429.01312 107.821976 426.52786 107.821976C424.04257 107.821976 422.02786 105.80726 422.02786 103.321976C422.02786 100.83669 424.04257 98.821976 426.52786 98.821976C429.01312 98.821976 431.02786 100.83669 431.02786 103.321976Z" fill-rule="nonzero"/><path fill="#ea4335" clip-path="url(#id_0)" d="M659.25494 143.32965C659.25494 145.81494 657.24023 147.82965 654.75494 147.82965C652.26965 147.82965 650.25494 145.81494 650.25494 143.32965C650.25494 140.84438 652.26965 138.82965 654.75494 138.82965C657.24023 138.82965 659.25494 140.84438 659.25494 143.32965Z" fill-rule="nonzero"/><path fill="#fbbc04" clip-path="url(#id_0)" d="M202.80075 358.28427C202.80075 360.76953 200.78604 362.78427 198.30075 362.78427C195.81548 362.78427 193.80075 360.76953 193.80075 358.28427C193.80075 355.79898 195.81548 353.78427 198.30075 353.78427C200.78604 353.78427 202.80075 355.79898 202.80075 358.28427Z" fill-rule="nonzero"/><path fill="#fbbc04" clip-path="url(#id_0)" d="M278.87646 209.68834C278.87646 212.17361 276.86172 214.18834 274.37646 214.18834C271.89117 214.18834 269.87646 212.17361 269.87646 209.68834C269.87646 207.20305 271.89117 205.18834 274.37646 205.18834C276.86172 205.18834 278.87646 207.20305 278.87646 209.68834Z" fill-rule="nonzero"/><path fill="#fbbc04" clip-path="url(#id_0)" d="M354.95215 250.56221C354.95215 253.04749 352.93744 255.06221 350.45215 255.06221C347.96686 255.06221 345.95215 253.04749 345.95215 250.56221C345.95215 248.07692 347.96686 246.06221 350.45215 246.06221C352.93744 246.06221 354.95215 248.07692 354.95215 250.56221Z" fill-rule="nonzero"/><path fill="#34a853" clip-path="url(#id_0)" d="M202.80075 261.5978C202.80075 264.0831 200.78604 266.0978 198.30075 266.0978C195.81548 266.0978 193.80075 264.0831 193.80075 261.5978C193.80075 259.11252 195.81548 257.0978 198.30075 257.0978C200.78604 257.0978 202.80075 259.11252 202.80075 261.5978Z" fill-rule="nonzero"/><path fill="#34a853" clip-path="url(#id_0)" d="M354.95215 150.14604C354.95215 152.63133 352.93744 154.64604 350.45215 154.64604C347.96686 154.64604 345.95215 152.63133 345.95215 150.14604C345.95215 147.66077 347.96686 145.64604 350.45215 145.64604C352.93744 145.64604 354.95215 147.66077 354.95215 150.14604Z" fill-rule="nonzero"/><path fill="#34a853" clip-path="url(#id_0)" d="M507.10355 228.47215C507.10355 230.95744 505.08884 232.97215 502.60355 232.97215C500.11826 232.97215 498.10355 230.95744 498.10355 228.47215C498.10355 225.98688 500.11826 223.97215 502.60355 223.97215C505.08884 223.97215 507.10355 225.98688 507.10355 228.47215Z" fill-rule="nonzero"/><path fill="#ff6d01" clip-path="url(#id_0)" d="M202.80075 209.91496C202.80075 212.40024 200.78604 214.41496 198.30075 214.41496C195.81548 214.41496 193.80075 212.40024 193.80075 209.91496C193.80075 207.42969 195.81548 205.41496 198.30075 205.41496C200.78604 205.41496 202.80075 207.42969 202.80075 209.91496Z" fill-rule="nonzero"/><path fill="#ff6d01" clip-path="url(#id_0)" d="M278.87646 115.50453C278.87646 117.989815 276.86172 120.00453 274.37646 120.00453C271.89117 120.00453 269.87646 117.989815 269.87646 115.50453C269.87646 113.01926 271.89117 111.00453 274.37646 111.00453C276.86172 111.00453 278.87646 113.01926 278.87646 115.50453Z" fill-rule="nonzero"/><path fill="#ff6d01" clip-path="url(#id_0)" d="M354.95215 129.57544C354.95215 132.06071 352.93744 134.07544 350.45215 134.07544C347.96686 134.07544 345.95215 132.06071 345.95215 129.57544C345.95215 127.09015 347.96686 125.07543 350.45215 125.07543C352.93744 125.07543 354.95215 127.09015 354.95215 129.57544Z" fill-rule="nonzero"/><path fill="#ff6d01" clip-path="url(#id_0)" d="M431.02786 166.97191C431.02786 169.4572 429.01312 171.47191 426.52786 171.47191C424.04257 171.47191 422.02786 169.4572 422.02786 166.97191C422.02786 164.48663 424.04257 162.47191 426.52786 162.47191C429.01312 162.47191 431.02786 164.48663 431.02786 166.97191Z" fill-rule="nonzero"/><path fill="#ff6d01" clip-path="url(#id_0)" d="M507.10355 124.06062C507.10355 126.545906 505.08884 128.56062 502.60355 128.56062C500.11826 128.56062 498.10355 126.545906 498.10355 124.06062C498.10355 121.57534 500.11826 119.56062 502.60355 119.56062C505.08884 119.56062 507.10355 121.57534 507.10355 124.06062Z" fill-rule="nonzero"/><path fill="#ff6d01" clip-path="url(#id_0)" d="M583.17926 160.52817C583.17926 163.01346 581.16455 165.02817 578.67926 165.02817C576.194 165.02817 574.17926 163.01346 574.17926 160.52817C574.17926 158.0429 576.194 156.02817 578.67926 156.02817C581.16455 156.02817 583.17926 158.0429 583.17926 160.52817Z" fill-rule="nonzero"/><path fill="#46bdc6" clip-path="url(#id_0)" d="M278.87646 183.31473C278.87646 185.80002 276.86172 187.81473 274.37646 187.81473C271.89117 187.81473 269.87646 185.80002 269.87646 183.31473C269.87646 180.82945 271.89117 178.81473 274.37646 178.81473C276.86172 178.81473 278.87646 180.82945 278.87646 183.31473Z" fill-rule="nonzero"/><path fill="#46bdc6" clip-path="url(#id_0)" d="M354.95215 195.5927C354.95215 198.07799 352.93744 200.0927 350.45215 200.0927C347.96686 200.0927 345.95215 198.07799 345.95215 195.5927C345.95215 193.10742 347.96686 191.0927 350.45215 191.0927C352.93744 191.0927 354.95215 193.10742 354.95215 195.5927Z" fill-rule="nonzero"/><path fill="#7baaf7" clip-path="url(#id_0)" d="M278.87646 358.28427C278.87646 360.76953 276.86172 362.78427 274.37646 362.78427C271.89117 362.78427 269.87646 360.76953 269.87646 358.28427C269.87646 355.79898 271.89117 353.78427 274.37646 353.78427C276.86172 353.78427 278.87646 355.79898 278.87646 358.28427Z" fill-rule="nonzero"/><path fill="#7baaf7" clip-path="url(#id_0)" d="M354.95215 154.90836C354.95215 157.39363 352.93744 159.40836 350.45215 159.40836C347.96686 159.40836 345.95215 157.39363 345.95215 154.90836C345.95215 152.42307 347.96686 150.40836 350.45215 150.40836C352.93744 150.40836 354.95215 152.42307 354.95215 154.90836Z" fill-rule="nonzero"/><path fill="#7baaf7" clip-path="url(#id_0)" d="M431.02786 191.7318C431.02786 194.21707 429.01312 196.2318 426.52786 196.2318C424.04257 196.2318 422.02786 194.21707 422.02786 191.7318C422.02786 189.2465 424.04257 187.2318 426.52786 187.2318C429.01312 187.2318 431.02786 189.2465 431.02786 191.7318Z" fill-rule="nonzero"/><path fill="#f07b72" clip-path="url(#id_0)" d="M126.72506 232.92686C126.72506 235.41214 124.710335 237.42686 122.22506 237.42686C119.73978 237.42686 117.72506 235.41214 117.72506 232.92686C117.72506 230.44157 119.73978 228.42686 122.22506 228.42686C124.710335 228.42686 126.72506 230.44157 126.72506 232.92686Z" fill-rule="nonzero"/><path fill="#f07b72" clip-path="url(#id_0)" d="M202.80075 358.28427C202.80075 360.76953 200.78604 362.78427 198.30075 362.78427C195.81548 362.78427 193.80075 360.76953 193.80075 358.28427C193.80075 355.79898 195.81548 353.78427 198.30075 353.78427C200.78604 353.78427 202.80075 355.79898 202.80075 358.28427Z" fill-rule="nonzero"/><path fill="#f07b72" clip-path="url(#id_0)" d="M278.87646 182.64943C278.87646 185.1347 276.86172 187.14943 274.37646 187.14943C271.89117 187.14943 269.87646 185.1347 269.87646 182.64943C269.87646 180.16415 271.89117 178.14943 274.37646 178.14943C276.86172 178.14943 278.87646 180.16415 278.87646 182.64943Z" fill-rule="nonzero"/><path fill="#f07b72" clip-path="url(#id_0)" d="M354.95215 137.43648C354.95215 139.92175 352.93744 141.93648 350.45215 141.93648C347.96686 141.93648 345.95215 139.92175 345.95215 137.43648C345.95215 134.9512 347.96686 132.93648 350.45215 132.93648C352.93744 132.93648 354.95215 134.9512 354.95215 137.43648Z" fill-rule="nonzero"/><path fill="#f07b72" clip-path="url(#id_0)" d="M431.02786 262.59265C431.02786 265.07794 429.01312 267.09265 426.52786 267.09265C424.04257 267.09265 422.02786 265.07794 422.02786 262.59265C422.02786 260.10736 424.04257 258.09265 426.52786 258.09265C429.01312 258.09265 431.02786 260.10736 431.02786 262.59265Z" fill-rule="nonzero"/><path fill="#f07b72" clip-path="url(#id_0)" d="M507.10355 120.05174C507.10355 122.537025 505.08884 124.55174 502.60355 124.55174C500.11826 124.55174 498.10355 122.537025 498.10355 120.05174C498.10355 117.56646 500.11826 115.55174 502.60355 115.55174C505.08884 115.55174 507.10355 117.56646 507.10355 120.05174Z" fill-rule="nonzero"/><path fill="#f07b72" clip-path="url(#id_0)" d="M583.17926 151.71959C583.17926 154.20488 581.16455 156.21959 578.67926 156.21959C576.194 156.21959 574.17926 154.20488 574.17926 151.71959C574.17926 149.23431 576.194 147.21959 578.67926 147.21959C581.16455 147.21959 583.17926 149.23431 583.17926 151.71959Z" fill-rule="nonzero"/><path fill="#fcd04f" clip-path="url(#id_0)" d="M126.72506 122.07642C126.72506 124.56171 124.710335 126.57642 122.22506 126.57642C119.73978 126.57642 117.72506 124.56171 117.72506 122.07642C117.72506 119.59114 119.73978 117.57642 122.22506 117.57642C124.710335 117.57642 126.72506 119.59114 126.72506 122.07642Z" fill-rule="nonzero"/><path fill="#fcd04f" clip-path="url(#id_0)" d="M202.80075 122.41406C202.80075 124.89934 200.78604 126.91406 198.30075 126.91406C195.81548 126.91406 193.80075 124.89934 193.80075 122.41406C193.80075 119.92878 195.81548 117.91406 198.30075 117.91406C200.78604 117.91406 202.80075 119.92878 202.80075 122.41406Z" fill-rule="nonzero"/><path fill="#fcd04f" clip-path="url(#id_0)" d="M278.87646 80.56524C278.87646 83.05052 276.86172 85.06524 274.37646 85.06524C271.89117 85.06524 269.87646 83.05052 269.87646 80.56524C269.87646 78.07996 271.89117 76.06524 274.37646 76.06524C276.86172 76.06524 278.87646 78.07996 278.87646 80.56524Z" fill-rule="nonzero"/><path fill="#fcd04f" clip-path="url(#id_0)" d="M354.95215 79.05547C354.95215 81.54075 352.93744 83.55547 350.45215 83.55547C347.96686 83.55547 345.95215 81.54075 345.95215 79.05547C345.95215 76.57019 347.96686 74.55547 350.45215 74.55547C352.93744 74.55547 354.95215 76.57019 354.95215 79.05547Z" fill-rule="nonzero"/><path fill="#fcd04f" clip-path="url(#id_0)" d="M431.02786 79.66659C431.02786 82.15187 429.01312 84.16659 426.52786 84.16659C424.04257 84.16659 422.02786 82.15187 422.02786 79.66659C422.02786 77.181305 424.04257 75.16659 426.52786 75.16659C429.01312 75.16659 431.02786 77.181305 431.02786 79.66659Z" fill-rule="nonzero"/><path fill="#fcd04f" clip-path="url(#id_0)" d="M507.10355 101.98116C507.10355 104.466446 505.08884 106.48116 502.60355 106.48116C500.11826 106.48116 498.10355 104.466446 498.10355 101.98116C498.10355 99.49588 500.11826 97.48116 502.60355 97.48116C505.08884 97.48116 507.10355 99.49588 507.10355 101.98116Z" fill-rule="nonzero"/><path fill="#fcd04f" clip-path="url(#id_0)" d="M583.17926 127.71807C583.17926 130.20335 581.16455 132.21806 578.67926 132.21806C576.194 132.21806 574.17926 130.20335 574.17926 127.71807C574.17926 125.23279 576.194 123.21807 578.67926 123.21807C581.16455 123.21807 583.17926 125.23279 583.17926 127.71807Z" fill-rule="nonzero"/><path fill="#fcd04f" clip-path="url(#id_0)" d="M659.25494 172.63156C659.25494 175.11684 657.24023 177.13156 654.75494 177.13156C652.26965 177.13156 650.25494 175.11684 650.25494 172.63156C650.25494 170.14629 652.26965 168.13156 654.75494 168.13156C657.24023 168.13156 659.25494 170.14629 659.25494 172.63156Z" fill-rule="nonzero"/><path fill="#71c287" clip-path="url(#id_0)" d="M126.72506 200.69386C126.72506 203.17914 124.710335 205.19386 122.22506 205.19386C119.73978 205.19386 117.72506 203.17914 117.72506 200.69386C117.72506 198.20859 119.73978 196.19386 122.22506 196.19386C124.710335 196.19386 126.72506 198.20859 126.72506 200.69386Z" fill-rule="nonzero"/><path fill="#71c287" clip-path="url(#id_0)" d="M202.80075 148.82605C202.80075 151.31134 200.78604 153.32605 198.30075 153.32605C195.81548 153.32605 193.80075 151.31134 193.80075 148.82605C193.80075 146.34077 195.81548 144.32605 198.30075 144.32605C200.78604 144.32605 202.80075 146.34077 202.80075 148.82605Z" fill-rule="nonzero"/><path fill="#71c287" clip-path="url(#id_0)" d="M278.87646 124.48937C278.87646 126.974655 276.86172 128.98936 274.37646 128.98936C271.89117 128.98936 269.87646 126.974655 269.87646 124.48937C269.87646 122.00409 271.89117 119.98937 274.37646 119.98937C276.86172 119.98937 278.87646 122.00409 278.87646 124.48937Z" fill-rule="nonzero"/><path fill="#71c287" clip-path="url(#id_0)" d="M354.95215 114.19269C354.95215 116.67797 352.93744 118.69269 350.45215 118.69269C347.96686 118.69269 345.95215 116.67797 345.95215 114.19269C345.95215 111.707405 347.96686 109.69269 350.45215 109.69269C352.93744 109.69269 354.95215 111.707405 354.95215 114.19269Z" fill-rule="nonzero"/><path fill="#71c287" clip-path="url(#id_0)" d="M431.02786 126.944C431.02786 129.42929 429.01312 131.444 426.52786 131.444C424.04257 131.444 422.02786 129.42929 422.02786 126.944C422.02786 124.45872 424.04257 122.444 426.52786 122.444C429.01312 122.444 431.02786 124.45872 431.02786 126.944Z" fill-rule="nonzero"/><path fill="#71c287" clip-path="url(#id_0)" d="M507.10355 315.28757C507.10355 317.77283 505.08884 319.78757 502.60355 319.78757C500.11826 319.78757 498.10355 317.77283 498.10355 315.28757C498.10355 312.80228 500.11826 310.78757 502.60355 310.78757C505.08884 310.78757 507.10355 312.80228 507.10355 315.28757Z" fill-rule="nonzero"/><path fill="#71c287" clip-path="url(#id_0)" d="M583.17926 172.08553C583.17926 174.57082 581.16455 176.58553 578.67926 176.58553C576.194 176.58553 574.17926 174.57082 574.17926 172.08553C574.17926 169.60025 576.194 167.58553 578.67926 167.58553C581.16455 167.58553 583.17926 169.60025 583.17926 172.08553Z" fill-rule="nonzero"/><path fill="#71c287" clip-path="url(#id_0)" d="M659.25494 373.6C659.25494 376.0853 657.24023 378.1 654.75494 378.1C652.26965 378.1 650.25494 376.0853 650.25494 373.6C650.25494 371.11472 652.26965 369.1 654.75494 369.1C657.24023 369.1 659.25494 371.11472 659.25494 373.6Z" fill-rule="nonzero"/><path fill="#000000" d="M378.83374 422.6L378.83374 418.95938L375.52124 414.00626L376.91187 414.00626L378.59937 416.6Q379.0681 417.31876 379.47437 418.05313Q379.865 417.38126 380.41187 416.5375L382.08374 414.00626L383.39624 414.00626L379.97437 418.95938L379.97437 422.6L378.83374 422.6ZM388.53687 420.6L389.6306 420.725Q389.3806 421.67813 388.6775 422.20938Q387.97437 422.74063 386.89624 422.74063Q385.53687 422.74063 384.72437 421.89688Q383.9275 421.05313 383.9275 419.5375Q383.9275 417.975 384.74 417.11563Q385.5525 416.24063 386.83374 416.24063Q388.08374 416.24063 388.865 417.08438Q389.66187 417.92813 389.66187 419.475Q389.66187 419.56876 389.66187 419.75626L385.02124 419.75626Q385.08374 420.7875 385.59937 421.33438Q386.115 421.86563 386.89624 421.86563Q387.47437 421.86563 387.8806 421.56876Q388.3025 421.25626 388.53687 420.6ZM385.08374 418.89688L388.5525 418.89688Q388.49 418.1 388.16187 417.70938Q387.64624 417.1 386.84937 417.1Q386.115 417.1 385.615 417.58438Q385.1306 418.06876 385.08374 418.89688ZM395.34937 421.83438Q394.7556 422.33438 394.20874 422.5375Q393.6775 422.74063 393.0525 422.74063Q392.02124 422.74063 391.47437 422.24063Q390.9275 421.74063 390.9275 420.95938Q390.9275 420.50626 391.1306 420.13126Q391.33374 419.74063 391.6775 419.52188Q392.02124 419.2875 392.4431 419.17813Q392.74 419.08438 393.3806 419.00626Q394.64624 418.86563 395.2556 418.64688Q395.2556 418.42813 395.2556 418.38126Q395.2556 417.725 394.95874 417.45938Q394.5525 417.11563 393.7556 417.11563Q393.02124 417.11563 392.66187 417.38126Q392.3025 417.63126 392.1306 418.2875L391.09937 418.14688Q391.24 417.49063 391.5681 417.08438Q391.89624 416.67813 392.5056 416.45938Q393.115 416.24063 393.91187 416.24063Q394.70874 416.24063 395.20874 416.42813Q395.70874 416.61563 395.9431 416.89688Q396.1775 417.17813 396.27124 417.61563Q396.3181 417.88126 396.3181 418.58438L396.3181 419.99063Q396.3181 421.45938 396.3806 421.85Q396.45874 422.24063 396.66187 422.6L395.5525 422.6Q395.39624 422.27188 395.34937 421.83438ZM395.2556 419.475Q394.6775 419.70938 393.53687 419.88126Q392.8806 419.975 392.615 420.1Q392.34937 420.20938 392.1931 420.42813Q392.0525 420.64688 392.0525 420.92813Q392.0525 421.35 392.365 421.63126Q392.6931 421.9125 393.3025 421.9125Q393.91187 421.9125 394.3806 421.64688Q394.865 421.38126 395.08374 420.9125Q395.2556 420.55313 395.2556 419.86563L395.2556 419.475ZM398.27124 422.6L398.27124 416.38126L399.22437 416.38126L399.22437 417.31876Q399.58374 416.6625 399.8806 416.45938Q400.1931 416.24063 400.5681 416.24063Q401.09937 416.24063 401.64624 416.56876L401.28687 417.55313Q400.89624 417.31876 400.52124 417.31876Q400.16187 417.31876 399.8806 417.5375Q399.615 417.74063 399.5056 418.11563Q399.3181 418.67813 399.3181 419.33438L399.3181 422.6L398.27124 422.6Z" fill-rule="nonzero"/><path fill="#000000" d="M30.38438 236.90416L30.681255 235.77916Q32.07188 236.13853 32.806255 237.06041Q33.54063 237.98228 33.54063 239.32603Q33.54063 240.71666 32.97813 241.59166Q32.41563 242.46666 31.35313 242.91978Q30.275005 243.37291 29.04063 243.37291Q27.69688 243.37291 26.69688 242.85728Q25.69688 242.34166 25.181255 241.40416Q24.66563 240.45103 24.66563 239.31041Q24.66563 238.02916 25.32188 237.15416Q25.97813 236.26353 27.16563 235.91978L27.431255 237.04478Q26.493755 237.34166 26.07188 237.91978Q25.63438 238.48228 25.63438 239.34166Q25.63438 240.32603 26.118755 240.99791Q26.587505 241.65416 27.38438 241.93541Q28.181255 242.20103 29.04063 242.20103Q30.13438 242.20103 30.94688 241.88853Q31.75938 241.56041 32.16563 240.88853Q32.57188 240.21666 32.57188 239.41978Q32.57188 238.46666 32.025005 237.81041Q31.47813 237.13853 30.38438 236.90416ZM30.29063 234.56041Q28.556255 234.56041 27.72813 233.60728Q27.04063 232.81041 27.04063 231.65416Q27.04063 230.37291 27.88438 229.56041Q28.712505 228.73228 30.19688 228.73228Q31.400005 228.73228 32.087505 229.09166Q32.775005 229.45103 33.16563 230.15416Q33.54063 230.84166 33.54063 231.65416Q33.54063 232.95103 32.712505 233.76353Q31.868755 234.56041 30.29063 234.56041ZM30.29063 233.48228Q31.47813 233.48228 32.07188 232.96666Q32.66563 232.43541 32.66563 231.65416Q32.66563 230.85728 32.07188 230.34166Q31.47813 229.82603 30.25938 229.82603Q29.10313 229.82603 28.50938 230.35728Q27.91563 230.87291 27.91563 231.65416Q27.91563 232.43541 28.50938 232.96666Q29.087505 233.48228 30.29063 233.48228ZM33.400005 223.09166L32.47813 223.09166Q33.54063 223.82603 33.54063 225.07603Q33.54063 225.62291 33.337505 226.10728Q33.118755 226.57603 32.806255 226.81041Q32.47813 227.04478 32.00938 227.13853Q31.712505 227.20103 31.025005 227.20103L27.181255 227.20103L27.181255 226.13853L30.63438 226.13853Q31.44688 226.13853 31.743755 226.07603Q32.150005 225.98228 32.400005 225.66978Q32.63438 225.34166 32.63438 224.85728Q32.63438 224.38853 32.400005 223.98228Q32.150005 223.56041 31.72813 223.38853Q31.306255 223.20103 30.50938 223.20103L27.181255 223.20103L27.181255 222.15416L33.400005 222.15416L33.400005 223.09166ZM33.400005 220.16978L27.181255 220.16978L27.181255 219.23228L28.056255 219.23228Q27.04063 218.54478 27.04063 217.24791Q27.04063 216.68541 27.243755 216.21666Q27.44688 215.73228 27.775005 215.49791Q28.10313 215.26353 28.54063 215.16978Q28.837505 215.12291 29.57188 215.12291L33.400005 215.12291L33.400005 216.16978L29.618755 216.16978Q28.962505 216.16978 28.650005 216.29478Q28.337505 216.41978 28.150005 216.73228Q27.94688 217.04478 27.94688 217.46666Q27.94688 218.13853 28.38438 218.63853Q28.806255 219.12291 29.993755 219.12291L33.400005 219.12291L33.400005 220.16978ZM32.462505 210.87291L33.38438 210.71666Q33.47813 211.16978 33.47813 211.51353Q33.47813 212.09166 33.306255 212.40416Q33.118755 212.71666 32.82188 212.85728Q32.525005 212.98228 31.57188 212.98228L27.993755 212.98228L27.993755 213.74791L27.181255 213.74791L27.181255 212.98228L25.63438 212.98228L25.00938 211.93541L27.181255 211.93541L27.181255 210.87291L27.993755 210.87291L27.993755 211.93541L31.63438 211.93541Q32.087505 211.93541 32.212505 211.88853Q32.337505 211.82603 32.41563 211.70103Q32.493755 211.57603 32.493755 211.34166Q32.493755 211.15416 32.462505 210.87291Z" fill-rule="nonzero"/><path fill="#000000" d="M106.86875 377.6L105.82188 377.6L105.82188 370.88126Q105.43125 371.24063 104.80625 371.61563Q104.19688 371.975 103.7125 372.14688L103.7125 371.13126Q104.5875 370.70938 105.24375 370.13126Q105.91563 369.5375 106.19688 368.975L106.86875 368.975L106.86875 377.6Z" fill-rule="nonzero"/><path fill="#000000" d="M99.86875 326.72223L98.82188 326.72223L98.82188 320.00348Q98.43125 320.36285 97.80625 320.73785Q97.19688 321.09723 96.7125 321.2691L96.7125 320.25348Q97.5875 319.8316 98.24375 319.25348Q98.91563 318.65973 99.19688 318.09723L99.86875 318.09723L99.86875 326.72223ZM102.9 322.48785Q102.9 320.9566 103.2125 320.03473Q103.525 319.09723 104.13438 318.59723Q104.75938 318.09723 105.69688 318.09723Q106.38438 318.09723 106.9 318.37848Q107.43125 318.65973 107.775 319.19098Q108.11875 319.7066 108.30625 320.4566Q108.49375 321.2066 108.49375 322.48785Q108.49375 324.00348 108.18125 324.92535Q107.88438 325.84723 107.25938 326.36285Q106.65 326.86285 105.69688 326.86285Q104.4625 326.86285 103.74375 325.97223Q102.9 324.90973 102.9 322.48785ZM103.97813 322.48785Q103.97813 324.59723 104.47813 325.30035Q104.97813 326.00348 105.69688 326.00348Q106.43125 326.00348 106.91563 325.30035Q107.41563 324.59723 107.41563 322.48785Q107.41563 320.36285 106.91563 319.67535Q106.43125 318.97223 105.68125 318.97223Q104.9625 318.97223 104.525 319.5816Q103.97813 320.36285 103.97813 322.48785Z" fill-rule="nonzero"/><path fill="#000000" d="M92.86875 275.84445L91.82188 275.84445L91.82188 269.1257Q91.43125 269.48508 90.80625 269.86008Q90.19688 270.21945 89.7125 270.39133L89.7125 269.3757Q90.5875 268.95383 91.24375 268.3757Q91.91563 267.78195 92.19688 267.21945L92.86875 267.21945L92.86875 275.84445ZM95.9 271.61008Q95.9 270.07883 96.2125 269.15695Q96.525 268.21945 97.13438 267.71945Q97.75938 267.21945 98.69688 267.21945Q99.38438 267.21945 99.9 267.5007Q100.43125 267.78195 100.775 268.3132Q101.11875 268.82883 101.30625 269.57883Q101.49375 270.32883 101.49375 271.61008Q101.49375 273.1257 101.18125 274.04758Q100.88438 274.96945 100.25938 275.48508Q99.65 275.98508 98.69688 275.98508Q97.4625 275.98508 96.74375 275.09445Q95.9 274.03195 95.9 271.61008ZM96.97813 271.61008Q96.97813 273.71945 97.47813 274.42258Q97.97813 275.1257 98.69688 275.1257Q99.43125 275.1257 99.91563 274.42258Q100.41563 273.71945 100.41563 271.61008Q100.41563 269.48508 99.91563 268.79758Q99.43125 268.09445 98.68125 268.09445Q97.9625 268.09445 97.525 268.70383Q96.97813 269.48508 96.97813 271.61008ZM102.9 271.61008Q102.9 270.07883 103.2125 269.15695Q103.525 268.21945 104.13438 267.71945Q104.75938 267.21945 105.69688 267.21945Q106.38438 267.21945 106.9 267.5007Q107.43125 267.78195 107.775 268.3132Q108.11875 268.82883 108.30625 269.57883Q108.49375 270.32883 108.49375 271.61008Q108.49375 273.1257 108.18125 274.04758Q107.88438 274.96945 107.25938 275.48508Q106.65 275.98508 105.69688 275.98508Q104.4625 275.98508 103.74375 275.09445Q102.9 274.03195 102.9 271.61008ZM103.97813 271.61008Q103.97813 273.71945 104.47813 274.42258Q104.97813 275.1257 105.69688 275.1257Q106.43125 275.1257 106.91563 274.42258Q107.41563 273.71945 107.41563 271.61008Q107.41563 269.48508 106.91563 268.79758Q106.43125 268.09445 105.68125 268.09445Q104.9625 268.09445 104.525 268.70383Q103.97813 269.48508 103.97813 271.61008Z" fill-rule="nonzero"/><path fill="#000000" d="M82.86875 224.96666L81.82188 224.96666L81.82188 218.24791Q81.43125 218.60728 80.80625 218.98228Q80.19688 219.34166 79.7125 219.51353L79.7125 218.49791Q80.5875 218.07603 81.24375 217.49791Q81.91563 216.90416 82.19688 216.34166L82.86875 216.34166L82.86875 224.96666ZM86.4625 224.96666L86.4625 223.76353L87.66563 223.76353L87.66563 224.96666Q87.66563 225.62291 87.43125 226.02916Q87.19688 226.45103 86.69688 226.66978L86.4 226.21666Q86.72813 226.07603 86.88438 225.77916Q87.04063 225.49791 87.07188 224.96666L86.4625 224.96666ZM88.9 220.73228Q88.9 219.20103 89.2125 218.27916Q89.525 217.34166 90.13438 216.84166Q90.75938 216.34166 91.69688 216.34166Q92.38438 216.34166 92.9 216.62291Q93.43125 216.90416 93.775 217.43541Q94.11875 217.95103 94.30625 218.70103Q94.49375 219.45103 94.49375 220.73228Q94.49375 222.24791 94.18125 223.16978Q93.88438 224.09166 93.25938 224.60728Q92.65 225.10728 91.69688 225.10728Q90.4625 225.10728 89.74375 224.21666Q88.9 223.15416 88.9 220.73228ZM89.97813 220.73228Q89.97813 222.84166 90.47813 223.54478Q90.97813 224.24791 91.69688 224.24791Q92.43125 224.24791 92.91563 223.54478Q93.41563 222.84166 93.41563 220.73228Q93.41563 218.60728 92.91563 217.91978Q92.43125 217.21666 91.68125 217.21666Q90.9625 217.21666 90.525 217.82603Q89.97813 218.60728 89.97813 220.73228ZM95.9 220.73228Q95.9 219.20103 96.2125 218.27916Q96.525 217.34166 97.13438 216.84166Q97.75938 216.34166 98.69688 216.34166Q99.38438 216.34166 99.9 216.62291Q100.43125 216.90416 100.775 217.43541Q101.11875 217.95103 101.30625 218.70103Q101.49375 219.45103 101.49375 220.73228Q101.49375 222.24791 101.18125 223.16978Q100.88438 224.09166 100.25938 224.60728Q99.65 225.10728 98.69688 225.10728Q97.4625 225.10728 96.74375 224.21666Q95.9 223.15416 95.9 220.73228ZM96.97813 220.73228Q96.97813 222.84166 97.47813 223.54478Q97.97813 224.24791 98.69688 224.24791Q99.43125 224.24791 99.91563 223.54478Q100.41563 222.84166 100.41563 220.73228Q100.41563 218.60728 99.91563 217.91978Q99.43125 217.21666 98.68125 217.21666Q97.9625 217.21666 97.525 217.82603Q96.97813 218.60728 96.97813 220.73228ZM102.9 220.73228Q102.9 219.20103 103.2125 218.27916Q103.525 217.34166 104.13438 216.84166Q104.75938 216.34166 105.69688 216.34166Q106.38438 216.34166 106.9 216.62291Q107.43125 216.90416 107.775 217.43541Q108.11875 217.95103 108.30625 218.70103Q108.49375 219.45103 108.49375 220.73228Q108.49375 222.24791 108.18125 223.16978Q107.88438 224.09166 107.25938 224.60728Q106.65 225.10728 105.69688 225.10728Q104.4625 225.10728 103.74375 224.21666Q102.9 223.15416 102.9 220.73228ZM103.97813 220.73228Q103.97813 222.84166 104.47813 223.54478Q104.97813 224.24791 105.69688 224.24791Q106.43125 224.24791 106.91563 223.54478Q107.41563 222.84166 107.41563 220.73228Q107.41563 218.60728 106.91563 217.91978Q106.43125 217.21666 105.68125 217.21666Q104.9625 217.21666 104.525 217.82603Q103.97813 218.60728 103.97813 220.73228Z" fill-rule="nonzero"/><path fill="#000000" d="M75.86875 174.08888L74.82188 174.08888L74.82188 167.37013Q74.43125 167.7295 73.80625 168.1045Q73.19688 168.46388 72.7125 168.63576L72.7125 167.62013Q73.5875 167.19826 74.24375 166.62013Q74.91563 166.02638 75.19688 165.46388L75.86875 165.46388L75.86875 174.08888ZM78.9 169.8545Q78.9 168.32326 79.2125 167.40138Q79.525 166.46388 80.13438 165.96388Q80.75938 165.46388 81.69688 165.46388Q82.38438 165.46388 82.9 165.74513Q83.43125 166.02638 83.775 166.55763Q84.11875 167.07326 84.30625 167.82326Q84.49375 168.57326 84.49375 169.8545Q84.49375 171.37013 84.18125 172.292Q83.88438 173.21388 83.25938 173.7295Q82.65 174.2295 81.69688 174.2295Q80.4625 174.2295 79.74375 173.33888Q78.9 172.27638 78.9 169.8545ZM79.97813 169.8545Q79.97813 171.96388 80.47813 172.667Q80.97813 173.37013 81.69688 173.37013Q82.43125 173.37013 82.91563 172.667Q83.41563 171.96388 83.41563 169.8545Q83.41563 167.7295 82.91563 167.042Q82.43125 166.33888 81.68125 166.33888Q80.9625 166.33888 80.525 166.94826Q79.97813 167.7295 79.97813 169.8545ZM86.4625 174.08888L86.4625 172.88576L87.66563 172.88576L87.66563 174.08888Q87.66563 174.74513 87.43125 175.15138Q87.19688 175.57326 86.69688 175.792L86.4 175.33888Q86.72813 175.19826 86.88438 174.90138Q87.04063 174.62013 87.07188 174.08888L86.4625 174.08888ZM88.9 169.8545Q88.9 168.32326 89.2125 167.40138Q89.525 166.46388 90.13438 165.96388Q90.75938 165.46388 91.69688 165.46388Q92.38438 165.46388 92.9 165.74513Q93.43125 166.02638 93.775 166.55763Q94.11875 167.07326 94.30625 167.82326Q94.49375 168.57326 94.49375 169.8545Q94.49375 171.37013 94.18125 172.292Q93.88438 173.21388 93.25938 173.7295Q92.65 174.2295 91.69688 174.2295Q90.4625 174.2295 89.74375 173.33888Q88.9 172.27638 88.9 169.8545ZM89.97813 169.8545Q89.97813 171.96388 90.47813 172.667Q90.97813 173.37013 91.69688 173.37013Q92.43125 173.37013 92.91563 172.667Q93.41563 171.96388 93.41563 169.8545Q93.41563 167.7295 92.91563 167.042Q92.43125 166.33888 91.68125 166.33888Q90.9625 166.33888 90.525 166.94826Q89.97813 167.7295 89.97813 169.8545ZM95.9 169.8545Q95.9 168.32326 96.2125 167.40138Q96.525 166.46388 97.13438 165.96388Q97.75938 165.46388 98.69688 165.46388Q99.38438 165.46388 99.9 165.74513Q100.43125 166.02638 100.775 166.55763Q101.11875 167.07326 101.30625 167.82326Q101.49375 168.57326 101.49375 169.8545Q101.49375 171.37013 101.18125 172.292Q100.88438 173.21388 100.25938 173.7295Q99.65 174.2295 98.69688 174.2295Q97.4625 174.2295 96.74375 173.33888Q95.9 172.27638 95.9 169.8545ZM96.97813 169.8545Q96.97813 171.96388 97.47813 172.667Q97.97813 173.37013 98.69688 173.37013Q99.43125 173.37013 99.91563 172.667Q100.41563 171.96388 100.41563 169.8545Q100.41563 167.7295 99.91563 167.042Q99.43125 166.33888 98.68125 166.33888Q97.9625 166.33888 97.525 166.94826Q96.97813 167.7295 96.97813 169.8545ZM102.9 169.8545Q102.9 168.32326 103.2125 167.40138Q103.525 166.46388 104.13438 165.96388Q104.75938 165.46388 105.69688 165.46388Q106.38438 165.46388 106.9 165.74513Q107.43125 166.02638 107.775 166.55763Q108.11875 167.07326 108.30625 167.82326Q108.49375 168.57326 108.49375 169.8545Q108.49375 171.37013 108.18125 172.292Q107.88438 173.21388 107.25938 173.7295Q106.65 174.2295 105.69688 174.2295Q104.4625 174.2295 103.74375 173.33888Q102.9 172.27638 102.9 169.8545ZM103.97813 169.8545Q103.97813 171.96388 104.47813 172.667Q104.97813 173.37013 105.69688 173.37013Q106.43125 173.37013 106.91563 172.667Q107.41563 171.96388 107.41563 169.8545Q107.41563 167.7295 106.91563 167.042Q106.43125 166.33888 105.68125 166.33888Q104.9625 166.33888 104.525 166.94826Q103.97813 167.7295 103.97813 169.8545Z" fill-rule="nonzero"/><path fill="#000000" d="M68.86875 123.21111L67.82188 123.21111L67.82188 116.49236Q67.43125 116.85174 66.80625 117.22674Q66.19688 117.58611 65.7125 117.75799L65.7125 116.74236Q66.5875 116.32049 67.24375 115.74236Q67.91563 115.14861 68.19688 114.58611L68.86875 114.58611L68.86875 123.21111ZM71.9 118.97674Q71.9 117.44549 72.2125 116.52361Q72.525 115.58611 73.13438 115.08611Q73.75938 114.58611 74.69688 114.58611Q75.38438 114.58611 75.9 114.86736Q76.43125 115.14861 76.775 115.67986Q77.11875 116.19549 77.30625 116.94549Q77.49375 117.69549 77.49375 118.97674Q77.49375 120.49236 77.18125 121.41424Q76.88438 122.33611 76.25938 122.85174Q75.65 123.35174 74.69688 123.35174Q73.4625 123.35174 72.74375 122.46111Q71.9 121.39861 71.9 118.97674ZM72.97813 118.97674Q72.97813 121.08611 73.47813 121.78924Q73.97813 122.49236 74.69688 122.49236Q75.43125 122.49236 75.91563 121.78924Q76.41563 121.08611 76.41563 118.97674Q76.41563 116.85174 75.91563 116.16424Q75.43125 115.46111 74.68125 115.46111Q73.9625 115.46111 73.525 116.07049Q72.97813 116.85174 72.97813 118.97674ZM78.9 118.97674Q78.9 117.44549 79.2125 116.52361Q79.525 115.58611 80.13438 115.08611Q80.75938 114.58611 81.69688 114.58611Q82.38438 114.58611 82.9 114.86736Q83.43125 115.14861 83.775 115.67986Q84.11875 116.19549 84.30625 116.94549Q84.49375 117.69549 84.49375 118.97674Q84.49375 120.49236 84.18125 121.41424Q83.88438 122.33611 83.25938 122.85174Q82.65 123.35174 81.69688 123.35174Q80.4625 123.35174 79.74375 122.46111Q78.9 121.39861 78.9 118.97674ZM79.97813 118.97674Q79.97813 121.08611 80.47813 121.78924Q80.97813 122.49236 81.69688 122.49236Q82.43125 122.49236 82.91563 121.78924Q83.41563 121.08611 83.41563 118.97674Q83.41563 116.85174 82.91563 116.16424Q82.43125 115.46111 81.68125 115.46111Q80.9625 115.46111 80.525 116.07049Q79.97813 116.85174 79.97813 118.97674ZM86.4625 123.21111L86.4625 122.00799L87.66563 122.00799L87.66563 123.21111Q87.66563 123.86736 87.43125 124.27361Q87.19688 124.69549 86.69688 124.91424L86.4 124.46111Q86.72813 124.32049 86.88438 124.02361Q87.04063 123.74236 87.07188 123.21111L86.4625 123.21111ZM88.9 118.97674Q88.9 117.44549 89.2125 116.52361Q89.525 115.58611 90.13438 115.08611Q90.75938 114.58611 91.69688 114.58611Q92.38438 114.58611 92.9 114.86736Q93.43125 115.14861 93.775 115.67986Q94.11875 116.19549 94.30625 116.94549Q94.49375 117.69549 94.49375 118.97674Q94.49375 120.49236 94.18125 121.41424Q93.88438 122.33611 93.25938 122.85174Q92.65 123.35174 91.69688 123.35174Q90.4625 123.35174 89.74375 122.46111Q88.9 121.39861 88.9 118.97674ZM89.97813 118.97674Q89.97813 121.08611 90.47813 121.78924Q90.97813 122.49236 91.69688 122.49236Q92.43125 122.49236 92.91563 121.78924Q93.41563 121.08611 93.41563 118.97674Q93.41563 116.85174 92.91563 116.16424Q92.43125 115.46111 91.68125 115.46111Q90.9625 115.46111 90.525 116.07049Q89.97813 116.85174 89.97813 118.97674ZM95.9 118.97674Q95.9 117.44549 96.2125 116.52361Q96.525 115.58611 97.13438 115.08611Q97.75938 114.58611 98.69688 114.58611Q99.38438 114.58611 99.9 114.86736Q100.43125 115.14861 100.775 115.67986Q101.11875 116.19549 101.30625 116.94549Q101.49375 117.69549 101.49375 118.97674Q101.49375 120.49236 101.18125 121.41424Q100.88438 122.33611 100.25938 122.85174Q99.65 123.35174 98.69688 123.35174Q97.4625 123.35174 96.74375 122.46111Q95.9 121.39861 95.9 118.97674ZM96.97813 118.97674Q96.97813 121.08611 97.47813 121.78924Q97.97813 122.49236 98.69688 122.49236Q99.43125 122.49236 99.91563 121.78924Q100.41563 121.08611 100.41563 118.97674Q100.41563 116.85174 99.91563 116.16424Q99.43125 115.46111 98.68125 115.46111Q97.9625 115.46111 97.525 116.07049Q96.97813 116.85174 96.97813 118.97674ZM102.9 118.97674Q102.9 117.44549 103.2125 116.52361Q103.525 115.58611 104.13438 115.08611Q104.75938 114.58611 105.69688 114.58611Q106.38438 114.58611 106.9 114.86736Q107.43125 115.14861 107.775 115.67986Q108.11875 116.19549 108.30625 116.94549Q108.49375 117.69549 108.49375 118.97674Q108.49375 120.49236 108.18125 121.41424Q107.88438 122.33611 107.25938 122.85174Q106.65 123.35174 105.69688 123.35174Q104.4625 123.35174 103.74375 122.46111Q102.9 121.39861 102.9 118.97674ZM103.97813 118.97674Q103.97813 121.08611 104.47813 121.78924Q104.97813 122.49236 105.69688 122.49236Q106.43125 122.49236 106.91563 121.78924Q107.41563 121.08611 107.41563 118.97674Q107.41563 116.85174 106.91563 116.16424Q106.43125 115.46111 105.68125 115.46111Q104.9625 115.46111 104.525 116.07049Q103.97813 116.85174 103.97813 118.97674Z" fill-rule="nonzero"/><path fill="#000000" d="M58.86875 72.333336L57.821877 72.333336L57.821877 65.614586Q57.43125 65.97396 56.80625 66.34896Q56.196877 66.708336 55.7125 66.88021L55.7125 65.864586Q56.5875 65.44271 57.24375 64.864586Q57.915627 64.270836 58.196877 63.708336L58.86875 63.708336L58.86875 72.333336ZM62.4625 72.333336L62.4625 71.13021L63.665627 71.13021L63.665627 72.333336Q63.665627 72.989586 63.43125 73.395836Q63.196877 73.81771 62.696877 74.03646L62.4 73.583336Q62.728127 73.44271 62.884377 73.145836Q63.040627 72.864586 63.071877 72.333336L62.4625 72.333336ZM64.9 68.09896Q64.9 66.56771 65.2125 65.645836Q65.525 64.708336 66.13438 64.208336Q66.75938 63.708336 67.69688 63.708336Q68.38438 63.708336 68.9 63.989586Q69.43125 64.270836 69.775 64.802086Q70.11875 65.31771 70.30625 66.06771Q70.49375 66.81771 70.49375 68.09896Q70.49375 69.614586 70.18125 70.53646Q69.88438 71.458336 69.25938 71.97396Q68.65 72.47396 67.69688 72.47396Q66.4625 72.47396 65.74375 71.583336Q64.9 70.520836 64.9 68.09896ZM65.97813 68.09896Q65.97813 70.208336 66.47813 70.91146Q66.97813 71.614586 67.69688 71.614586Q68.43125 71.614586 68.91563 70.91146Q69.41563 70.208336 69.41563 68.09896Q69.41563 65.97396 68.91563 65.28646Q68.43125 64.583336 67.68125 64.583336Q66.9625 64.583336 66.525 65.19271Q65.97813 65.97396 65.97813 68.09896ZM71.9 68.09896Q71.9 66.56771 72.2125 65.645836Q72.525 64.708336 73.13438 64.208336Q73.75938 63.708336 74.69688 63.708336Q75.38438 63.708336 75.9 63.989586Q76.43125 64.270836 76.775 64.802086Q77.11875 65.31771 77.30625 66.06771Q77.49375 66.81771 77.49375 68.09896Q77.49375 69.614586 77.18125 70.53646Q76.88438 71.458336 76.25938 71.97396Q75.65 72.47396 74.69688 72.47396Q73.4625 72.47396 72.74375 71.583336Q71.9 70.520836 71.9 68.09896ZM72.97813 68.09896Q72.97813 70.208336 73.47813 70.91146Q73.97813 71.614586 74.69688 71.614586Q75.43125 71.614586 75.91563 70.91146Q76.41563 70.208336 76.41563 68.09896Q76.41563 65.97396 75.91563 65.28646Q75.43125 64.583336 74.68125 64.583336Q73.9625 64.583336 73.525 65.19271Q72.97813 65.97396 72.97813 68.09896ZM78.9 68.09896Q78.9 66.56771 79.2125 65.645836Q79.525 64.708336 80.13438 64.208336Q80.75938 63.708336 81.69688 63.708336Q82.38438 63.708336 82.9 63.989586Q83.43125 64.270836 83.775 64.802086Q84.11875 65.31771 84.30625 66.06771Q84.49375 66.81771 84.49375 68.09896Q84.49375 69.614586 84.18125 70.53646Q83.88438 71.458336 83.25938 71.97396Q82.65 72.47396 81.69688 72.47396Q80.4625 72.47396 79.74375 71.583336Q78.9 70.520836 78.9 68.09896ZM79.97813 68.09896Q79.97813 70.208336 80.47813 70.91146Q80.97813 71.614586 81.69688 71.614586Q82.43125 71.614586 82.91563 70.91146Q83.41563 70.208336 83.41563 68.09896Q83.41563 65.97396 82.91563 65.28646Q82.43125 64.583336 81.68125 64.583336Q80.9625 64.583336 80.525 65.19271Q79.97813 65.97396 79.97813 68.09896ZM86.4625 72.333336L86.4625 71.13021L87.66563 71.13021L87.66563 72.333336Q87.66563 72.989586 87.43125 73.395836Q87.19688 73.81771 86.69688 74.03646L86.4 73.583336Q86.72813 73.44271 86.88438 73.145836Q87.04063 72.864586 87.07188 72.333336L86.4625 72.333336ZM88.9 68.09896Q88.9 66.56771 89.2125 65.645836Q89.525 64.708336 90.13438 64.208336Q90.75938 63.708336 91.69688 63.708336Q92.38438 63.708336 92.9 63.989586Q93.43125 64.270836 93.775 64.802086Q94.11875 65.31771 94.30625 66.06771Q94.49375 66.81771 94.49375 68.09896Q94.49375 69.614586 94.18125 70.53646Q93.88438 71.458336 93.25938 71.97396Q92.65 72.47396 91.69688 72.47396Q90.4625 72.47396 89.74375 71.583336Q88.9 70.520836 88.9 68.09896ZM89.97813 68.09896Q89.97813 70.208336 90.47813 70.91146Q90.97813 71.614586 91.69688 71.614586Q92.43125 71.614586 92.91563 70.91146Q93.41563 70.208336 93.41563 68.09896Q93.41563 65.97396 92.91563 65.28646Q92.43125 64.583336 91.68125 64.583336Q90.9625 64.583336 90.525 65.19271Q89.97813 65.97396 89.97813 68.09896ZM95.9 68.09896Q95.9 66.56771 96.2125 65.645836Q96.525 64.708336 97.13438 64.208336Q97.75938 63.708336 98.69688 63.708336Q99.38438 63.708336 99.9 63.989586Q100.43125 64.270836 100.775 64.802086Q101.11875 65.31771 101.30625 66.06771Q101.49375 66.81771 101.49375 68.09896Q101.49375 69.614586 101.18125 70.53646Q100.88438 71.458336 100.25938 71.97396Q99.65 72.47396 98.69688 72.47396Q97.4625 72.47396 96.74375 71.583336Q95.9 70.520836 95.9 68.09896ZM96.97813 68.09896Q96.97813 70.208336 97.47813 70.91146Q97.97813 71.614586 98.69688 71.614586Q99.43125 71.614586 99.91563 70.91146Q100.41563 70.208336 100.41563 68.09896Q100.41563 65.97396 99.91563 65.28646Q99.43125 64.583336 98.68125 64.583336Q97.9625 64.583336 97.525 65.19271Q96.97813 65.97396 96.97813 68.09896ZM102.9 68.09896Q102.9 66.56771 103.2125 65.645836Q103.525 64.708336 104.13438 64.208336Q104.75938 63.708336 105.69688 63.708336Q106.38438 63.708336 106.9 63.989586Q107.43125 64.270836 107.775 64.802086Q108.11875 65.31771 108.30625 66.06771Q108.49375 66.81771 108.49375 68.09896Q108.49375 69.614586 108.18125 70.53646Q107.88438 71.458336 107.25938 71.97396Q106.65 72.47396 105.69688 72.47396Q104.4625 72.47396 103.74375 71.583336Q102.9 70.520836 102.9 68.09896ZM103.97813 68.09896Q103.97813 70.208336 104.47813 70.91146Q104.97813 71.614586 105.69688 71.614586Q106.43125 71.614586 106.91563 70.91146Q107.41563 70.208336 107.41563 68.09896Q107.41563 65.97396 106.91563 65.28646Q106.43125 64.583336 105.68125 64.583336Q104.9625 64.583336 104.525 65.19271Q103.97813 65.97396 103.97813 68.09896Z" fill-rule="nonzero"/><path fill="#000000" d="M190.34763 389.58438L190.34763 390.6L184.66013 390.6Q184.66013 390.225 184.78513 389.86563Q185.00388 389.2875 185.47263 388.725Q185.957 388.1625 186.86325 387.42813Q188.2695 386.27188 188.75388 385.6Q189.25388 384.92813 189.25388 384.33438Q189.25388 383.70938 188.80075 383.2875Q188.34763 382.85 187.62888 382.85Q186.86325 382.85 186.41013 383.30313Q185.957 383.75626 185.94138 384.56876L184.86325 384.45938Q184.97263 383.24063 185.69138 382.61563Q186.42575 381.975 187.66013 381.975Q188.8945 381.975 189.61325 382.6625Q190.332 383.35 190.332 384.36563Q190.332 384.88126 190.11325 385.38126Q189.91013 385.86563 189.41013 386.42813Q188.92575 386.975 187.80075 387.92813Q186.84763 388.725 186.56638 389.02188Q186.30075 389.30313 186.12888 389.58438L190.34763 389.58438ZM191.80075 386.36563Q191.80075 384.83438 192.11325 383.9125Q192.42575 382.975 193.03513 382.475Q193.66013 381.975 194.59763 381.975Q195.28513 381.975 195.80075 382.25626Q196.332 382.5375 196.67575 383.06876Q197.0195 383.58438 197.207 384.33438Q197.3945 385.08438 197.3945 386.36563Q197.3945 387.88126 197.082 388.80313Q196.78513 389.725 196.16013 390.24063Q195.55075 390.74063 194.59763 390.74063Q193.36325 390.74063 192.6445 389.85Q191.80075 388.7875 191.80075 386.36563ZM192.87888 386.36563Q192.87888 388.475 193.37888 389.17813Q193.87888 389.88126 194.59763 389.88126Q195.332 389.88126 195.81638 389.17813Q196.31638 388.475 196.31638 386.36563Q196.31638 384.24063 195.81638 383.55313Q195.332 382.85 194.582 382.85Q193.86325 382.85 193.42575 383.45938Q192.87888 384.24063 192.87888 386.36563ZM202.7695 390.6L201.72263 390.6L201.72263 383.88126Q201.332 384.24063 200.707 384.61563Q200.09763 384.975 199.61325 385.14688L199.61325 384.13126Q200.48825 383.70938 201.1445 383.13126Q201.81638 382.5375 202.09763 381.975L202.7695 381.975L202.7695 390.6ZM209.17575 390.6L209.17575 388.5375L205.457 388.5375L205.457 387.56876L209.37888 382.00626L210.23825 382.00626L210.23825 387.56876L211.3945 387.56876L211.3945 388.5375L210.23825 388.5375L210.23825 390.6L209.17575 390.6ZM209.17575 387.56876L209.17575 383.70938L206.48825 387.56876L209.17575 387.56876Z" fill-rule="nonzero"/><path fill="#000000" d="M342.49902 389.58438L342.49902 390.6L336.81152 390.6Q336.81152 390.225 336.93652 389.86563Q337.15527 389.2875 337.62402 388.725Q338.1084 388.1625 339.01465 387.42813Q340.4209 386.27188 340.90527 385.6Q341.40527 384.92813 341.40527 384.33438Q341.40527 383.70938 340.95215 383.2875Q340.49902 382.85 339.78027 382.85Q339.01465 382.85 338.56152 383.30313Q338.1084 383.75626 338.09277 384.56876L337.01465 384.45938Q337.12402 383.24063 337.84277 382.61563Q338.57715 381.975 339.81152 381.975Q341.0459 381.975 341.76465 382.6625Q342.4834 383.35 342.4834 384.36563Q342.4834 384.88126 342.26465 385.38126Q342.06152 385.86563 341.56152 386.42813Q341.07715 386.975 339.95215 387.92813Q338.99902 388.725 338.71777 389.02188Q338.45215 389.30313 338.28027 389.58438L342.49902 389.58438ZM343.95215 386.36563Q343.95215 384.83438 344.26465 383.9125Q344.57715 382.975 345.18652 382.475Q345.81152 381.975 346.74902 381.975Q347.43652 381.975 347.95215 382.25626Q348.4834 382.5375 348.82715 383.06876Q349.1709 383.58438 349.3584 384.33438Q349.5459 385.08438 349.5459 386.36563Q349.5459 387.88126 349.2334 388.80313Q348.93652 389.725 348.31152 390.24063Q347.70215 390.74063 346.74902 390.74063Q345.51465 390.74063 344.7959 389.85Q343.95215 388.7875 343.95215 386.36563ZM345.03027 386.36563Q345.03027 388.475 345.53027 389.17813Q346.03027 389.88126 346.74902 389.88126Q347.4834 389.88126 347.96777 389.17813Q348.46777 388.475 348.46777 386.36563Q348.46777 384.24063 347.96777 383.55313Q347.4834 382.85 346.7334 382.85Q346.01465 382.85 345.57715 383.45938Q345.03027 384.24063 345.03027 386.36563ZM354.9209 390.6L353.87402 390.6L353.87402 383.88126Q353.4834 384.24063 352.8584 384.61563Q352.24902 384.975 351.76465 385.14688L351.76465 384.13126Q352.63965 383.70938 353.2959 383.13126Q353.96777 382.5375 354.24902 381.975L354.9209 381.975L354.9209 390.6ZM363.4209 384.11563L362.37402 384.19376Q362.2334 383.56876 361.9834 383.2875Q361.5459 382.83438 360.9209 382.83438Q360.4209 382.83438 360.03027 383.11563Q359.5459 383.49063 359.24902 384.19376Q358.96777 384.88126 358.95215 386.1625Q359.32715 385.58438 359.87402 385.30313Q360.43652 385.02188 361.0459 385.02188Q362.09277 385.02188 362.82715 385.80313Q363.57715 386.58438 363.57715 387.80313Q363.57715 388.61563 363.21777 389.31876Q362.87402 390.00626 362.26465 390.38126Q361.65527 390.74063 360.88965 390.74063Q359.56152 390.74063 358.7334 389.77188Q357.90527 388.80313 357.90527 386.58438Q357.90527 384.08438 358.82715 382.95938Q359.62402 381.975 360.9834 381.975Q361.99902 381.975 362.63965 382.55313Q363.2959 383.11563 363.4209 384.11563ZM359.12402 387.81876Q359.12402 388.36563 359.34277 388.86563Q359.57715 389.35 359.9834 389.61563Q360.40527 389.88126 360.87402 389.88126Q361.53027 389.88126 362.01465 389.35Q362.49902 388.80313 362.49902 387.88126Q362.49902 386.99063 362.01465 386.475Q361.5459 385.95938 360.82715 385.95938Q360.1084 385.95938 359.6084 386.475Q359.12402 386.99063 359.12402 387.81876Z" fill-rule="nonzero"/><path fill="#000000" d="M494.65042 389.58438L494.65042 390.6L488.96292 390.6Q488.96292 390.225 489.08792 389.86563Q489.30667 389.2875 489.77542 388.725Q490.2598 388.1625 491.16605 387.42813Q492.5723 386.27188 493.05667 385.6Q493.55667 384.92813 493.55667 384.33438Q493.55667 383.70938 493.10355 383.2875Q492.65042 382.85 491.93167 382.85Q491.16605 382.85 490.71292 383.30313Q490.2598 383.75626 490.24417 384.56876L489.16605 384.45938Q489.27542 383.24063 489.99417 382.61563Q490.72855 381.975 491.96292 381.975Q493.1973 381.975 493.91605 382.6625Q494.6348 383.35 494.6348 384.36563Q494.6348 384.88126 494.41605 385.38126Q494.21292 385.86563 493.71292 386.42813Q493.22855 386.975 492.10355 387.92813Q491.15042 388.725 490.86917 389.02188Q490.60355 389.30313 490.43167 389.58438L494.65042 389.58438ZM496.10355 386.36563Q496.10355 384.83438 496.41605 383.9125Q496.72855 382.975 497.33792 382.475Q497.96292 381.975 498.90042 381.975Q499.58792 381.975 500.10355 382.25626Q500.6348 382.5375 500.97855 383.06876Q501.3223 383.58438 501.5098 384.33438Q501.6973 385.08438 501.6973 386.36563Q501.6973 387.88126 501.3848 388.80313Q501.08792 389.725 500.46292 390.24063Q499.85355 390.74063 498.90042 390.74063Q497.66605 390.74063 496.9473 389.85Q496.10355 388.7875 496.10355 386.36563ZM497.18167 386.36563Q497.18167 388.475 497.68167 389.17813Q498.18167 389.88126 498.90042 389.88126Q499.6348 389.88126 500.11917 389.17813Q500.61917 388.475 500.61917 386.36563Q500.61917 384.24063 500.11917 383.55313Q499.6348 382.85 498.8848 382.85Q498.16605 382.85 497.72855 383.45938Q497.18167 384.24063 497.18167 386.36563ZM507.0723 390.6L506.02542 390.6L506.02542 383.88126Q505.6348 384.24063 505.0098 384.61563Q504.40042 384.975 503.91605 385.14688L503.91605 384.13126Q504.79105 383.70938 505.4473 383.13126Q506.11917 382.5375 506.40042 381.975L507.0723 381.975L507.0723 390.6ZM511.72855 385.94376Q511.0723 385.69376 510.74417 385.25626Q510.43167 384.80313 510.43167 384.19376Q510.43167 383.25626 511.10355 382.61563Q511.79105 381.975 512.9004 381.975Q514.0254 381.975 514.7129 382.63126Q515.4004 383.2875 515.4004 384.225Q515.4004 384.81876 515.0879 385.25626Q514.7754 385.69376 514.13477 385.94376Q514.93164 386.19376 515.3379 386.77188Q515.74414 387.35 515.74414 388.14688Q515.74414 389.24063 514.9629 389.99063Q514.19727 390.74063 512.916 390.74063Q511.65042 390.74063 510.86917 389.99063Q510.08792 389.24063 510.08792 388.11563Q510.08792 387.27188 510.5098 386.70938Q510.9473 386.14688 511.72855 385.94376ZM511.5098 384.14688Q511.5098 384.75626 511.90042 385.14688Q512.30664 385.5375 512.93164 385.5375Q513.541 385.5375 513.93164 385.1625Q514.32227 384.77188 514.32227 384.20938Q514.32227 383.63126 513.916 383.24063Q513.50977 382.83438 512.916 382.83438Q512.30664 382.83438 511.90042 383.225Q511.5098 383.61563 511.5098 384.14688ZM511.18167 388.11563Q511.18167 388.56876 511.3848 388.99063Q511.60355 389.4125 512.0254 389.64688Q512.44727 389.88126 512.93164 389.88126Q513.68164 389.88126 514.166 389.39688Q514.666 388.9125 514.666 388.1625Q514.666 387.39688 514.166 386.89688Q513.666 386.39688 512.9004 386.39688Q512.1504 386.39688 511.66605 386.89688Q511.18167 387.38126 511.18167 388.11563Z" fill-rule="nonzero"/><path fill="#000000" d="M646.8018 389.58438L646.8018 390.6L641.1143 390.6Q641.1143 390.225 641.2393 389.86563Q641.45807 389.2875 641.9268 388.725Q642.4112 388.1625 643.31744 387.42813Q644.7237 386.27188 645.20807 385.6Q645.70807 384.92813 645.70807 384.33438Q645.70807 383.70938 645.25494 383.2875Q644.8018 382.85 644.08307 382.85Q643.31744 382.85 642.8643 383.30313Q642.4112 383.75626 642.39557 384.56876L641.31744 384.45938Q641.4268 383.24063 642.14557 382.61563Q642.87994 381.975 644.1143 381.975Q645.3487 381.975 646.06744 382.6625Q646.7862 383.35 646.7862 384.36563Q646.7862 384.88126 646.56744 385.38126Q646.3643 385.86563 645.8643 386.42813Q645.37994 386.975 644.25494 387.92813Q643.3018 388.725 643.02057 389.02188Q642.75494 389.30313 642.58307 389.58438L646.8018 389.58438ZM648.25494 386.36563Q648.25494 384.83438 648.56744 383.9125Q648.87994 382.975 649.4893 382.475Q650.1143 381.975 651.0518 381.975Q651.7393 381.975 652.25494 382.25626Q652.7862 382.5375 653.12994 383.06876Q653.4737 383.58438 653.6612 384.33438Q653.8487 385.08438 653.8487 386.36563Q653.8487 387.88126 653.5362 388.80313Q653.2393 389.725 652.6143 390.24063Q652.00494 390.74063 651.0518 390.74063Q649.81744 390.74063 649.0987 389.85Q648.25494 388.7875 648.25494 386.36563ZM649.33307 386.36563Q649.33307 388.475 649.83307 389.17813Q650.33307 389.88126 651.0518 389.88126Q651.7862 389.88126 652.27057 389.17813Q652.77057 388.475 652.77057 386.36563Q652.77057 384.24063 652.27057 383.55313Q651.7862 382.85 651.0362 382.85Q650.31744 382.85 649.87994 383.45938Q649.33307 384.24063 649.33307 386.36563ZM660.8018 389.58438L660.8018 390.6L655.1143 390.6Q655.1143 390.225 655.2393 389.86563Q655.45807 389.2875 655.9268 388.725Q656.4112 388.1625 657.31744 387.42813Q658.7237 386.27188 659.20807 385.6Q659.70807 384.92813 659.70807 384.33438Q659.70807 383.70938 659.25494 383.2875Q658.8018 382.85 658.08307 382.85Q657.31744 382.85 656.8643 383.30313Q656.4112 383.75626 656.39557 384.56876L655.31744 384.45938Q655.4268 383.24063 656.14557 382.61563Q656.87994 381.975 658.1143 381.975Q659.3487 381.975 660.06744 382.6625Q660.7862 383.35 660.7862 384.36563Q660.7862 384.88126 660.56744 385.38126Q660.3643 385.86563 659.8643 386.42813Q659.37994 386.975 658.25494 387.92813Q657.3018 388.725 657.02057 389.02188Q656.75494 389.30313 656.58307 389.58438L660.8018 389.58438ZM662.25494 386.36563Q662.25494 384.83438 662.56744 383.9125Q662.87994 382.975 663.4893 382.475Q664.1143 381.975 665.0518 381.975Q665.7393 381.975 666.25494 382.25626Q666.7862 382.5375 667.12994 383.06876Q667.4737 383.58438 667.6612 384.33438Q667.8487 385.08438 667.8487 386.36563Q667.8487 387.88126 667.5362 388.80313Q667.2393 389.725 666.6143 390.24063Q666.00494 390.74063 665.0518 390.74063Q663.81744 390.74063 663.0987 389.85Q662.25494 388.7875 662.25494 386.36563ZM663.33307 386.36563Q663.33307 388.475 663.83307 389.17813Q664.33307 389.88126 665.0518 389.88126Q665.7862 389.88126 666.27057 389.17813Q666.77057 388.475 666.77057 386.36563Q666.77057 384.24063 666.27057 383.55313Q665.7862 382.85 665.0362 382.85Q664.31744 382.85 663.87994 383.45938Q663.33307 384.24063 663.33307 386.36563Z" fill-rule="nonzero"/><path fill="#4285f4" d="M697.86444 68.333336C697.86444 71.64704 695.17816 74.333336 691.86444 74.333336C688.5507 74.333336 685.86444 71.64704 685.86444 68.333336C685.86444 65.01962 688.5507 62.333332 691.86444 62.333332C695.17816 62.333332 697.86444 65.01962 697.86444 68.333336Z" fill-rule="nonzero"/><path fill="#1a1a1a" d="M706.73944 72.333336L706.73944 63.739586L709.9738 63.739586Q710.9582 63.739586 711.55194 64.00521Q712.1457 64.270836 712.4738 64.81771Q712.81757 65.34896 712.81757 65.94271Q712.81757 66.489586 712.5207 66.97396Q712.2238 67.458336 711.61444 67.75521Q712.3957 67.989586 712.80194 68.552086Q713.2238 69.09896 713.2238 69.84896Q713.2238 70.44271 712.9738 70.97396Q712.7238 71.489586 712.3488 71.770836Q711.9738 72.052086 711.3957 72.19271Q710.8332 72.333336 710.0207 72.333336L706.73944 72.333336ZM707.88007 67.34896L709.73944 67.34896Q710.48944 67.34896 710.81757 67.25521Q711.25507 67.13021 711.4738 66.833336Q711.69257 66.520836 711.69257 66.06771Q711.69257 65.645836 711.48944 65.31771Q711.2863 64.989586 710.8957 64.88021Q710.5207 64.75521 709.5988 64.75521L707.88007 64.75521L707.88007 67.34896ZM707.88007 71.31771L710.0207 71.31771Q710.56757 71.31771 710.7863 71.270836Q711.19257 71.208336 711.44257 71.052086Q711.7082 70.88021 711.88007 70.56771Q712.05194 70.25521 712.05194 69.84896Q712.05194 69.364586 711.80194 69.00521Q711.56757 68.645836 711.13007 68.50521Q710.69257 68.364586 709.86444 68.364586L707.88007 68.364586L707.88007 71.31771ZM714.7863 72.333336L714.7863 63.739586L717.75507 63.739586Q718.75507 63.739586 719.2863 63.864586Q720.0207 64.03646 720.5363 64.47396Q721.2238 65.052086 721.55194 65.958336Q721.8957 66.84896 721.8957 67.989586Q721.8957 68.97396 721.6613 69.72396Q721.44257 70.47396 721.0832 70.97396Q720.7238 71.47396 720.2863 71.75521Q719.86444 72.03646 719.2707 72.19271Q718.67694 72.333336 717.8957 72.333336L714.7863 72.333336ZM715.92694 71.31771L717.75507 71.31771Q718.61444 71.31771 719.0988 71.16146Q719.5832 71.00521 719.86444 70.708336Q720.2707 70.31771 720.48944 69.63021Q720.7238 68.94271 720.7238 67.97396Q720.7238 66.63021 720.2707 65.91146Q719.8332 65.177086 719.2082 64.927086Q718.73944 64.75521 717.73944 64.75521L715.92694 64.75521L715.92694 71.31771Z" fill-rule="nonzero"/><path fill="#ea4335" d="M697.86444 92.333336C697.86444 95.64704 695.17816 98.333336 691.86444 98.333336C688.5507 98.333336 685.86444 95.64704 685.86444 92.333336C685.86444 89.01962 688.5507 86.333336 691.86444 86.333336C695.17816 86.333336 697.86444 89.01962 697.86444 92.333336Z" fill-rule="nonzero"/><path fill="#1a1a1a" d="M706.73944 96.333336L706.73944 87.739586L709.9738 87.739586Q710.9582 87.739586 711.55194 88.00521Q712.1457 88.270836 712.4738 88.81771Q712.81757 89.34896 712.81757 89.94271Q712.81757 90.489586 712.5207 90.97396Q712.2238 91.458336 711.61444 91.75521Q712.3957 91.989586 712.80194 92.552086Q713.2238 93.09896 713.2238 93.84896Q713.2238 94.44271 712.9738 94.97396Q712.7238 95.489586 712.3488 95.770836Q711.9738 96.052086 711.3957 96.19271Q710.8332 96.333336 710.0207 96.333336L706.73944 96.333336ZM707.88007 91.34896L709.73944 91.34896Q710.48944 91.34896 710.81757 91.25521Q711.25507 91.13021 711.4738 90.833336Q711.69257 90.520836 711.69257 90.06771Q711.69257 89.645836 711.48944 89.31771Q711.2863 88.989586 710.8957 88.88021Q710.5207 88.75521 709.5988 88.75521L707.88007 88.75521L707.88007 91.34896ZM707.88007 95.31771L710.0207 95.31771Q710.56757 95.31771 710.7863 95.270836Q711.19257 95.208336 711.44257 95.052086Q711.7082 94.88021 711.88007 94.56771Q712.05194 94.25521 712.05194 93.84896Q712.05194 93.364586 711.80194 93.00521Q711.56757 92.645836 711.13007 92.50521Q710.69257 92.364586 709.86444 92.364586L707.88007 92.364586L707.88007 95.31771ZM714.80194 96.333336L714.80194 87.739586L718.61444 87.739586Q719.7707 87.739586 720.36444 87.97396Q720.9582 88.208336 721.31757 88.802086Q721.67694 89.38021 721.67694 90.083336Q721.67694 91.00521 721.0832 91.63021Q720.48944 92.25521 719.25507 92.427086Q719.7082 92.645836 719.94257 92.84896Q720.44257 93.302086 720.88007 93.989586L722.38007 96.333336L720.94257 96.333336L719.81757 94.552086Q719.31757 93.770836 718.98944 93.364586Q718.67694 92.958336 718.4113 92.802086Q718.1613 92.63021 717.8957 92.552086Q717.7082 92.520836 717.2707 92.520836L715.94257 92.520836L715.94257 96.333336L714.80194 96.333336ZM715.94257 91.53646L718.3957 91.53646Q719.1613 91.53646 719.5988 91.38021Q720.05194 91.208336 720.2707 90.864586Q720.50507 90.50521 720.50507 90.083336Q720.50507 89.47396 720.05194 89.083336Q719.61444 88.69271 718.6613 88.69271L715.94257 88.69271L715.94257 91.53646Z" fill-rule="nonzero"/><path fill="#fbbc04" d="M697.86444 116.333336C697.86444 119.64704 695.17816 122.333336 691.86444 122.333336C688.5507 122.333336 685.86444 119.64704 685.86444 116.333336C685.86444 113.01962 688.5507 110.333336 691.86444 110.333336C695.17816 110.333336 697.86444 113.01962 697.86444 116.333336Z" fill-rule="nonzero"/><path fill="#1a1a1a" d="M712.92694 117.31771L714.05194 117.614586Q713.69257 119.00521 712.7707 119.739586Q711.8488 120.47396 710.50507 120.47396Q709.11444 120.47396 708.23944 119.91146Q707.36444 119.34896 706.9113 118.28646Q706.4582 117.208336 706.4582 115.97396Q706.4582 114.63021 706.9738 113.63021Q707.48944 112.63021 708.42694 112.114586Q709.38007 111.59896 710.5207 111.59896Q711.80194 111.59896 712.67694 112.25521Q713.56757 112.91146 713.9113 114.09896L712.7863 114.364586Q712.48944 113.427086 711.9113 113.00521Q711.3488 112.56771 710.48944 112.56771Q709.50507 112.56771 708.8332 113.052086Q708.17694 113.520836 707.8957 114.31771Q707.63007 115.114586 707.63007 115.97396Q707.63007 117.06771 707.94257 117.88021Q708.2707 118.69271 708.94257 119.09896Q709.61444 119.50521 710.4113 119.50521Q711.36444 119.50521 712.0207 118.958336Q712.69257 118.41146 712.92694 117.31771ZM715.7863 120.333336L715.7863 111.739586L716.94257 111.739586L721.4582 118.489586L721.4582 111.739586L722.55194 111.739586L722.55194 120.333336L721.38007 120.333336L716.86444 113.583336L716.86444 120.333336L715.7863 120.333336Z" fill-rule="nonzero"/><path fill="#34a853" d="M697.86444 140.33333C697.86444 143.64705 695.17816 146.33333 691.86444 146.33333C688.5507 146.33333 685.86444 143.64705 685.86444 140.33333C685.86444 137.01962 688.5507 134.33333 691.86444 134.33333C695.17816 134.33333 697.86444 137.01962 697.86444 140.33333Z" fill-rule="nonzero"/><path fill="#1a1a1a" d="M706.98944 144.33333L706.98944 135.73958L708.11444 135.73958L708.11444 144.33333L706.98944 144.33333ZM709.7863 144.33333L709.7863 135.73958L712.75507 135.73958Q713.75507 135.73958 714.2863 135.86458Q715.0207 136.03645 715.5363 136.47395Q716.2238 137.05208 716.55194 137.95833Q716.8957 138.84895 716.8957 139.98958Q716.8957 140.97395 716.6613 141.72395Q716.44257 142.47395 716.0832 142.97395Q715.7238 143.47395 715.2863 143.7552Q714.86444 144.03645 714.2707 144.1927Q713.67694 144.33333 712.8957 144.33333L709.7863 144.33333ZM710.92694 143.3177L712.75507 143.3177Q713.61444 143.3177 714.0988 143.16145Q714.5832 143.0052 714.86444 142.70833Q715.2707 142.3177 715.48944 141.6302Q715.7238 140.9427 715.7238 139.97395Q715.7238 138.6302 715.2707 137.91145Q714.8332 137.17708 714.2082 136.92708Q713.73944 136.7552 712.73944 136.7552L710.92694 136.7552L710.92694 143.3177Z" fill-rule="nonzero"/><path fill="#ff6d01" d="M697.86444 164.33333C697.86444 167.64705 695.17816 170.33333 691.86444 170.33333C688.5507 170.33333 685.86444 167.64705 685.86444 164.33333C685.86444 161.01962 688.5507 158.33333 691.86444 158.33333C695.17816 158.33333 697.86444 161.01962 697.86444 164.33333Z" fill-rule="nonzero"/><path fill="#1a1a1a" d="M706.98944 168.33333L706.98944 159.73958L708.11444 159.73958L708.11444 168.33333L706.98944 168.33333ZM709.7863 168.33333L709.7863 159.73958L710.94257 159.73958L715.4582 166.48958L715.4582 159.73958L716.55194 159.73958L716.55194 168.33333L715.38007 168.33333L710.86444 161.58333L710.86444 168.33333L709.7863 168.33333Z" fill-rule="nonzero"/><path fill="#46bdc6" d="M697.86444 188.33333C697.86444 191.64705 695.17816 194.33333 691.86444 194.33333C688.5507 194.33333 685.86444 191.64705 685.86444 188.33333C685.86444 185.01962 688.5507 182.33333 691.86444 182.33333C695.17816 182.33333 697.86444 185.01962 697.86444 188.33333Z" fill-rule="nonzero"/><path fill="#1a1a1a" d="M706.75507 192.33333L706.75507 183.73958L708.4738 183.73958L710.50507 189.8177Q710.7863 190.67708 710.9113 191.09895Q711.05194 190.6302 711.36444 189.72395L713.42694 183.73958L714.9582 183.73958L714.9582 192.33333L713.86444 192.33333L713.86444 185.14583L711.36444 192.33333L710.3332 192.33333L707.8488 185.02083L707.8488 192.33333L706.75507 192.33333ZM715.9113 192.33333L719.23944 187.84895L716.31757 183.73958L717.6613 183.73958L719.2238 185.9427Q719.7082 186.6302 719.9113 187.0052Q720.2082 186.53645 720.5988 186.02083L722.31757 183.73958L723.55194 183.73958L720.5363 187.78645L723.7863 192.33333L722.38007 192.33333L720.2238 189.27083Q720.0363 189.0052 719.8488 188.6927Q719.56757 189.16145 719.44257 189.33333L717.2863 192.33333L715.9113 192.33333Z" fill-rule="nonzero"/><path fill="#7baaf7" d="M697.86444 212.33333C697.86444 215.64705 695.17816 218.33333 691.86444 218.33333C688.5507 218.33333 685.86444 215.64705 685.86444 212.33333C685.86444 209.01962 688.5507 206.33333 691.86444 206.33333C695.17816 206.33333 697.86444 209.01962 697.86444 212.33333Z" fill-rule="nonzero"/><path fill="#1a1a1a" d="M706.7863 216.33333L706.7863 207.73958L710.0363 207.73958Q710.88007 207.73958 711.3332 207.8177Q711.9738 207.92708 712.3957 208.22395Q712.8332 208.52083 713.0832 209.05208Q713.3488 209.58333 713.3488 210.22395Q713.3488 211.3177 712.6457 212.08333Q711.9582 212.83333 710.13007 212.83333L707.92694 212.83333L707.92694 216.33333L706.7863 216.33333ZM707.92694 211.83333L710.1457 211.83333Q711.25507 211.83333 711.7082 211.42708Q712.17694 211.0052 712.17694 210.2552Q712.17694 209.72395 711.8957 209.34895Q711.63007 208.95833 711.19257 208.83333Q710.8957 208.7552 710.13007 208.7552L707.92694 208.7552L707.92694 211.83333ZM714.73944 216.33333L714.73944 207.73958L715.88007 207.73958L715.88007 212.0052L720.1457 207.73958L721.69257 207.73958L718.0832 211.22395L721.8488 216.33333L720.3488 216.33333L717.2863 211.98958L715.88007 213.34895L715.88007 216.33333L714.73944 216.33333Z" fill-rule="nonzero"/><path fill="#f07b72" d="M697.86444 236.33333C697.86444 239.64705 695.17816 242.33333 691.86444 242.33333C688.5507 242.33333 685.86444 239.64705 685.86444 236.33333C685.86444 233.01962 688.5507 230.33333 691.86444 230.33333C695.17816 230.33333 697.86444 233.01962 697.86444 236.33333Z" fill-rule="nonzero"/><path fill="#1a1a1a" d="M706.80194 240.33333L706.80194 231.73958L710.61444 231.73958Q711.7707 231.73958 712.36444 231.97395Q712.9582 232.20833 713.31757 232.80208Q713.67694 233.3802 713.67694 234.08333Q713.67694 235.0052 713.0832 235.6302Q712.48944 236.2552 711.25507 236.42708Q711.7082 236.64583 711.94257 236.84895Q712.44257 237.30208 712.88007 237.98958L714.38007 240.33333L712.94257 240.33333L711.81757 238.55208Q711.31757 237.77083 710.98944 237.36458Q710.67694 236.95833 710.4113 236.80208Q710.1613 236.6302 709.8957 236.55208Q709.7082 236.52083 709.2707 236.52083L707.94257 236.52083L707.94257 240.33333L706.80194 240.33333ZM707.94257 235.53645L710.3957 235.53645Q711.1613 235.53645 711.5988 235.3802Q712.05194 235.20833 712.2707 234.86458Q712.50507 234.5052 712.50507 234.08333Q712.50507 233.47395 712.05194 233.08333Q711.61444 232.6927 710.6613 232.6927L707.94257 232.6927L707.94257 235.53645ZM721.42694 231.73958L722.56757 231.73958L722.56757 236.70833Q722.56757 238.0052 722.2707 238.77083Q721.9738 239.52083 721.2082 240.0052Q720.44257 240.47395 719.2082 240.47395Q718.00507 240.47395 717.2238 240.0677Q716.4582 239.64583 716.13007 238.86458Q715.80194 238.0677 715.80194 236.70833L715.80194 231.73958L716.94257 231.73958L716.94257 236.6927Q716.94257 237.8177 717.1457 238.34895Q717.36444 238.8802 717.86444 239.17708Q718.38007 239.45833 719.11444 239.45833Q720.36444 239.45833 720.8957 238.89583Q721.42694 238.3177 721.42694 236.6927L721.42694 231.73958Z" fill-rule="nonzero"/><path fill="#fcd04f" d="M697.86444 260.33334C697.86444 263.64703 695.17816 266.33334 691.86444 266.33334C688.5507 266.33334 685.86444 263.64703 685.86444 260.33334C685.86444 257.01962 688.5507 254.33333 691.86444 254.33333C695.17816 254.33333 697.86444 257.01962 697.86444 260.33334Z" fill-rule="nonzero"/><path fill="#1a1a1a" d="M712.42694 255.7396L713.56757 255.7396L713.56757 260.70834Q713.56757 262.00522 713.2707 262.77084Q712.9738 263.52084 712.2082 264.00522Q711.44257 264.47397 710.2082 264.47397Q709.00507 264.47397 708.2238 264.06772Q707.4582 263.64584 707.13007 262.8646Q706.80194 262.06772 706.80194 260.70834L706.80194 255.7396L707.94257 255.7396L707.94257 260.69272Q707.94257 261.81772 708.1457 262.34897Q708.36444 262.88022 708.86444 263.1771Q709.38007 263.45834 710.11444 263.45834Q711.36444 263.45834 711.8957 262.89584Q712.42694 262.31772 712.42694 260.69272L712.42694 255.7396ZM715.4113 261.56772L716.4738 261.47397Q716.55194 262.13022 716.8332 262.53647Q717.11444 262.94272 717.69257 263.20834Q718.2863 263.45834 719.0207 263.45834Q719.6613 263.45834 720.1613 263.27084Q720.6613 263.06772 720.8957 262.7396Q721.1457 262.39584 721.1457 262.00522Q721.1457 261.59897 720.9113 261.3021Q720.67694 260.9896 720.1457 260.78647Q719.7863 260.64584 718.5988 260.3646Q717.42694 260.08334 716.9582 259.83334Q716.3332 259.50522 716.0363 259.03647Q715.73944 258.5521 715.73944 257.95834Q715.73944 257.31772 716.0988 256.75522Q716.4738 256.1771 717.17694 255.89584Q717.8957 255.59897 718.75507 255.59897Q719.7082 255.59897 720.44257 255.91147Q721.17694 256.20834 721.56757 256.81772Q721.9582 257.41147 721.98944 258.16147L720.8957 258.2396Q720.80194 257.4271 720.2863 257.02084Q719.7863 256.59897 718.80194 256.59897Q717.7707 256.59897 717.30194 256.97397Q716.8332 257.34897 716.8332 257.88022Q716.8332 258.34897 717.1613 258.64584Q717.48944 258.94272 718.86444 259.25522Q720.25507 259.56772 720.7707 259.8021Q721.5207 260.16147 721.88007 260.69272Q722.23944 261.20834 722.23944 261.91147Q722.23944 262.59897 721.8488 263.20834Q721.4582 263.8021 720.7238 264.14584Q719.98944 264.47397 719.06757 264.47397Q717.8957 264.47397 717.0988 264.14584Q716.31757 263.8021 715.86444 263.1146Q715.42694 262.4271 715.4113 261.56772Z" fill-rule="nonzero"/><path fill="#71c287" d="M697.86444 284.33334C697.86444 287.64703 695.17816 290.33334 691.86444 290.33334C688.5507 290.33334 685.86444 287.64703 685.86444 284.33334C685.86444 281.01962 688.5507 278.33334 691.86444 278.33334C695.17816 278.33334 697.86444 281.01962 697.86444 284.33334Z" fill-rule="nonzero"/><path fill="#1a1a1a" d="M706.0988 288.33334L706.0988 287.27084L710.50507 281.77084Q710.9738 281.19272 711.3957 280.75522L706.5988 280.75522L706.5988 279.7396L712.75507 279.7396L712.75507 280.75522L707.92694 286.70834L707.4113 287.31772L712.8957 287.31772L712.8957 288.33334L706.0988 288.33334ZM713.0988 288.33334L713.0988 287.27084L717.50507 281.77084Q717.9738 281.19272 718.3957 280.75522L713.5988 280.75522L713.5988 279.7396L719.75507 279.7396L719.75507 280.75522L714.92694 286.70834L714.4113 287.31772L719.8957 287.31772L719.8957 288.33334L713.0988 288.33334Z" fill-rule="nonzero"/><path fill="#757575" d="M23.36875 34.43125Q23.36875 30.868752 25.275 28.853127Q27.196875 26.821877 30.228125 26.821877Q32.2125 26.821877 33.790627 27.775002Q35.384377 28.728127 36.2125 30.431252Q37.05625 32.11875 37.05625 34.259377Q37.05625 36.43125 36.18125 38.15Q35.30625 39.86875 33.68125 40.759377Q32.071877 41.65 30.2125 41.65Q28.196875 41.65 26.603125 40.68125Q25.009375 39.696877 24.18125 38.009377Q23.36875 36.30625 23.36875 34.43125ZM25.321875 34.4625Q25.321875 37.040627 26.7125 38.540627Q28.103125 40.025 30.196875 40.025Q32.3375 40.025 33.7125 38.525Q35.103127 37.009377 35.103127 34.24375Q35.103127 32.509377 34.509377 31.212502Q33.93125 29.900002 32.790627 29.181252Q31.65 28.462502 30.228125 28.462502Q28.228125 28.462502 26.775 29.853127Q25.321875 31.228127 25.321875 34.4625ZM39.36875 34.43125Q39.36875 30.868752 41.275 28.853127Q43.196877 26.821877 46.228127 26.821877Q48.2125 26.821877 49.790627 27.775002Q51.384377 28.728127 52.2125 30.431252Q53.05625 32.11875 53.05625 34.259377Q53.05625 36.43125 52.18125 38.15Q51.30625 39.86875 49.68125 40.759377Q48.071877 41.65 46.2125 41.65Q44.196877 41.65 42.603127 40.68125Q41.009377 39.696877 40.18125 38.009377Q39.36875 36.30625 39.36875 34.43125ZM41.321877 34.4625Q41.321877 37.040627 42.7125 38.540627Q44.103127 40.025 46.196877 40.025Q48.3375 40.025 49.7125 38.525Q51.103127 37.009377 51.103127 34.24375Q51.103127 32.509377 50.509377 31.212502Q49.93125 29.900002 48.790627 29.181252Q47.65 28.462502 46.228127 28.462502Q44.228127 28.462502 42.775 29.853127Q41.321877 31.228127 41.321877 34.4625ZM55.93125 41.4L55.93125 27.087502L57.86875 27.087502L65.38438 38.321877L65.38438 27.087502L67.19688 27.087502L67.19688 41.4L65.25938 41.4L57.74375 30.150002L57.74375 41.4L55.93125 41.4ZM70.25938 41.4L70.25938 27.087502L72.16563 27.087502L72.16563 41.4L70.25938 41.4ZM82.00938 41.4L82.00938 27.087502L83.9 27.087502L83.9 32.9625L91.3375 32.9625L91.3375 27.087502L93.22813 27.087502L93.22813 41.4L91.3375 41.4L91.3375 34.65L83.9 34.65L83.9 41.4L82.00938 41.4ZM99.5875 41.4L99.5875 28.775002L94.86875 28.775002L94.86875 27.087502L106.2125 27.087502L106.2125 28.775002L101.47813 28.775002L101.47813 41.4L99.5875 41.4ZM111.5875 41.4L111.5875 28.775002L106.86875 28.775002L106.86875 27.087502L118.2125 27.087502L118.2125 28.775002L113.47813 28.775002L113.47813 41.4L111.5875 41.4ZM119.94688 41.4L119.94688 27.087502L125.3375 27.087502Q126.775 27.087502 127.525 27.212502Q128.57187 27.400002 129.29062 27.900002Q130.00937 28.384377 130.43124 29.275002Q130.86874 30.165627 130.86874 31.228127Q130.86874 33.05625 129.69687 34.321877Q128.54062 35.571877 125.50938 35.571877L121.8375 35.571877L121.8375 41.4L119.94688 41.4ZM121.8375 33.884377L125.54063 33.884377Q127.36875 33.884377 128.13437 33.2125Q128.91562 32.525 128.91562 31.275002Q128.91562 30.384377 128.4625 29.743752Q128.00937 29.103127 127.275 28.900002Q126.79063 28.775002 125.49375 28.775002L121.8375 28.775002L121.8375 33.884377ZM138.97812 41.4L138.97812 27.087502L145.32187 27.087502Q147.22812 27.087502 148.22812 27.478127Q149.22812 27.853127 149.82187 28.837502Q150.41562 29.806252 150.41562 30.993752Q150.41562 32.509377 149.43124 33.55625Q148.44687 34.603127 146.38437 34.884377Q147.13437 35.24375 147.525 35.603127Q148.35312 36.353127 149.10312 37.509377L151.5875 41.4L149.2125 41.4L147.30624 38.415627Q146.47812 37.134377 145.94687 36.446877Q145.41562 35.759377 144.97812 35.49375Q144.55624 35.2125 144.11874 35.103127Q143.79062 35.040627 143.07187 35.040627L140.86874 35.040627L140.86874 41.4L138.97812 41.4ZM140.86874 33.4L144.94687 33.4Q146.24374 33.4 146.9625 33.134377Q147.69687 32.86875 148.07187 32.275Q148.4625 31.681252 148.4625 30.993752Q148.4625 29.978127 147.72812 29.321877Q146.99374 28.665627 145.4 28.665627L140.86874 28.665627L140.86874 33.4ZM159.82187 38.05625L161.63437 38.290627Q161.2125 39.86875 160.04062 40.759377Q158.88437 41.634377 157.07187 41.634377Q154.80624 41.634377 153.4625 40.24375Q152.13437 38.8375 152.13437 36.30625Q152.13437 33.68125 153.47812 32.24375Q154.82187 30.790627 156.97812 30.790627Q159.05624 30.790627 160.36874 32.2125Q161.69687 33.61875 161.69687 36.196877Q161.69687 36.353127 161.68124 36.665627L153.94687 36.665627Q154.04062 38.36875 154.91562 39.275Q155.79062 40.18125 157.0875 40.18125Q158.05624 40.18125 158.72812 39.68125Q159.41562 39.165627 159.82187 38.05625ZM154.04062 35.2125L159.8375 35.2125Q159.72812 33.915627 159.18124 33.259377Q158.3375 32.24375 156.99374 32.24375Q155.79062 32.24375 154.9625 33.05625Q154.13437 33.853127 154.04062 35.2125ZM170.3375 45.36875L170.3375 40.290627Q169.91562 40.86875 169.18124 41.259377Q168.44687 41.634377 167.61874 41.634377Q165.775 41.634377 164.43124 40.165627Q163.10312 38.68125 163.10312 36.11875Q163.10312 34.55625 163.63437 33.321877Q164.18124 32.071877 165.2125 31.431252Q166.24374 30.790627 167.47812 30.790627Q169.4 30.790627 170.50937 32.415627L170.50937 31.025002L172.0875 31.025002L172.0875 45.36875L170.3375 45.36875ZM164.91562 36.18125Q164.91562 38.18125 165.74374 39.18125Q166.5875 40.18125 167.75937 40.18125Q168.88437 40.18125 169.69687 39.24375Q170.50937 38.290627 170.50937 36.3375Q170.50937 34.275 169.65 33.228127Q168.79062 32.18125 167.65 32.18125Q166.50937 32.18125 165.7125 33.15Q164.91562 34.11875 164.91562 36.18125ZM181.50937 41.4L181.50937 39.86875Q180.30624 41.634377 178.22812 41.634377Q177.30624 41.634377 176.50937 41.290627Q175.7125 40.93125 175.32187 40.4Q174.94687 39.86875 174.79062 39.0875Q174.68124 38.571877 174.68124 37.446877L174.68124 31.025002L176.43124 31.025002L176.43124 36.775Q176.43124 38.15 176.54062 38.634377Q176.7125 39.321877 177.24374 39.728127Q177.79062 40.11875 178.57187 40.11875Q179.36874 40.11875 180.05624 39.7125Q180.75937 39.30625 181.04062 38.61875Q181.3375 37.915627 181.3375 36.5875L181.3375 31.025002L183.0875 31.025002L183.0875 41.4L181.50937 41.4ZM192.82187 38.05625L194.63437 38.290627Q194.2125 39.86875 193.04062 40.759377Q191.88437 41.634377 190.07187 41.634377Q187.80624 41.634377 186.4625 40.24375Q185.13437 38.8375 185.13437 36.30625Q185.13437 33.68125 186.47812 32.24375Q187.82187 30.790627 189.97812 30.790627Q192.05624 30.790627 193.36874 32.2125Q194.69687 33.61875 194.69687 36.196877Q194.69687 36.353127 194.68124 36.665627L186.94687 36.665627Q187.04062 38.36875 187.91562 39.275Q188.79062 40.18125 190.0875 40.18125Q191.05624 40.18125 191.72812 39.68125Q192.41562 39.165627 192.82187 38.05625ZM187.04062 35.2125L192.8375 35.2125Q192.72812 33.915627 192.18124 33.259377Q191.3375 32.24375 189.99374 32.24375Q188.79062 32.24375 187.9625 33.05625Q187.13437 33.853127 187.04062 35.2125ZM196.00937 38.30625L197.75937 38.025Q197.9 39.071877 198.57187 39.634377Q199.24374 40.18125 200.44687 40.18125Q201.65 40.18125 202.22812 39.696877Q202.82187 39.196877 202.82187 38.540627Q202.82187 37.946877 202.30624 37.603127Q201.94687 37.36875 200.50937 37.009377Q198.57187 36.509377 197.82187 36.165627Q197.0875 35.80625 196.69687 35.18125Q196.30624 34.540627 196.30624 33.775Q196.30624 33.0875 196.61874 32.49375Q196.94687 31.900002 197.49374 31.509377Q197.9 31.212502 198.60312 31.009377Q199.32187 30.790627 200.13437 30.790627Q201.35312 30.790627 202.275 31.150002Q203.19687 31.493752 203.63437 32.103127Q204.07187 32.696877 204.24374 33.696877L202.525 33.93125Q202.4 33.134377 201.8375 32.696877Q201.275 32.24375 200.25937 32.24375Q199.04062 32.24375 198.525 32.65Q198.00937 33.040627 198.00937 33.571877Q198.00937 33.915627 198.22812 34.196877Q198.43124 34.478127 198.9 34.665627Q199.16562 34.759377 200.44687 35.103127Q202.32187 35.603127 203.05624 35.93125Q203.79062 36.24375 204.2125 36.853127Q204.63437 37.446877 204.63437 38.353127Q204.63437 39.228127 204.11874 40.009377Q203.60312 40.790627 202.63437 41.2125Q201.66562 41.634377 200.44687 41.634377Q198.43124 41.634377 197.36874 40.790627Q196.30624 39.946877 196.00937 38.30625ZM210.55624 39.821877L210.80624 41.384377Q210.07187 41.540627 209.47812 41.540627Q208.525 41.540627 207.99374 41.24375Q207.47812 40.93125 207.25937 40.446877Q207.04062 39.946877 207.04062 38.36875L207.04062 32.4L205.75937 32.4L205.75937 31.025002L207.04062 31.025002L207.04062 28.462502L208.79062 27.400002L208.79062 31.025002L210.55624 31.025002L210.55624 32.4L208.79062 32.4L208.79062 38.4625Q208.79062 39.2125 208.88437 39.43125Q208.97812 39.634377 209.18124 39.775Q209.4 39.9 209.79062 39.9Q210.07187 39.9 210.55624 39.821877ZM212.00937 38.30625L213.75937 38.025Q213.9 39.071877 214.57187 39.634377Q215.24374 40.18125 216.44687 40.18125Q217.65 40.18125 218.22812 39.696877Q218.82187 39.196877 218.82187 38.540627Q218.82187 37.946877 218.30624 37.603127Q217.94687 37.36875 216.50937 37.009377Q214.57187 36.509377 213.82187 36.165627Q213.0875 35.80625 212.69687 35.18125Q212.30624 34.540627 212.30624 33.775Q212.30624 33.0875 212.61874 32.49375Q212.94687 31.900002 213.49374 31.509377Q213.9 31.212502 214.60312 31.009377Q215.32187 30.790627 216.13437 30.790627Q217.35312 30.790627 218.275 31.150002Q219.19687 31.493752 219.63437 32.103127Q220.07187 32.696877 220.24374 33.696877L218.525 33.93125Q218.4 33.134377 217.8375 32.696877Q217.275 32.24375 216.25937 32.24375Q215.04062 32.24375 214.525 32.65Q214.00937 33.040627 214.00937 33.571877Q214.00937 33.915627 214.22812 34.196877Q214.43124 34.478127 214.9 34.665627Q215.16562 34.759377 216.44687 35.103127Q218.32187 35.603127 219.05624 35.93125Q219.79062 36.24375 220.2125 36.853127Q220.63437 37.446877 220.63437 38.353127Q220.63437 39.228127 220.11874 40.009377Q219.60312 40.790627 218.63437 41.2125Q217.66562 41.634377 216.44687 41.634377Q214.43124 41.634377 213.36874 40.790627Q212.30624 39.946877 212.00937 38.30625ZM239.16562 36.384377L241.05624 36.853127Q240.4625 39.196877 238.91562 40.43125Q237.36874 41.65 235.11874 41.65Q232.80624 41.65 231.35312 40.7125Q229.91562 39.759377 229.15 37.978127Q228.4 36.18125 228.4 34.134377Q228.4 31.900002 229.24374 30.243752Q230.10312 28.571877 231.68124 27.712502Q233.25937 26.837502 235.15 26.837502Q237.30624 26.837502 238.75937 27.931252Q240.22812 29.025002 240.80624 31.009377L238.94687 31.446877Q238.44687 29.884377 237.49374 29.181252Q236.55624 28.462502 235.11874 28.462502Q233.4625 28.462502 232.35312 29.259377Q231.24374 30.040627 230.79062 31.384377Q230.35312 32.7125 230.35312 34.11875Q230.35312 35.946877 230.88437 37.321877Q231.41562 38.68125 232.54062 39.353127Q233.66562 40.025 234.9625 40.025Q236.55624 40.025 237.66562 39.103127Q238.775 38.18125 239.16562 36.384377ZM242.07187 36.2125Q242.07187 33.3375 243.66562 31.946877Q245.00937 30.790627 246.93124 30.790627Q249.07187 30.790627 250.41562 32.196877Q251.775 33.603127 251.775 36.071877Q251.775 38.071877 251.18124 39.228127Q250.5875 40.36875 249.43124 41.009377Q248.29062 41.634377 246.93124 41.634377Q244.74374 41.634377 243.4 40.24375Q242.07187 38.8375 242.07187 36.2125ZM243.86874 36.2125Q243.86874 38.2125 244.72812 39.196877Q245.60312 40.18125 246.93124 40.18125Q248.24374 40.18125 249.10312 39.196877Q249.97812 38.196877 249.97812 36.15Q249.97812 34.228127 249.10312 33.24375Q248.22812 32.24375 246.93124 32.24375Q245.60312 32.24375 244.72812 33.24375Q243.86874 34.228127 243.86874 36.2125ZM260.50937 41.4L260.50937 39.86875Q259.30624 41.634377 257.22812 41.634377Q256.30624 41.634377 255.50937 41.290627Q254.7125 40.93125 254.32187 40.4Q253.94687 39.86875 253.79062 39.0875Q253.68124 38.571877 253.68124 37.446877L253.68124 31.025002L255.43124 31.025002L255.43124 36.775Q255.43124 38.15 255.54062 38.634377Q255.7125 39.321877 256.24374 39.728127Q256.79062 40.11875 257.57187 40.11875Q258.36874 40.11875 259.05624 39.7125Q259.75937 39.30625 260.04062 38.61875Q260.3375 37.915627 260.3375 36.5875L260.3375 31.025002L262.0875 31.025002L262.0875 41.4L260.50937 41.4ZM264.7125 41.4L264.7125 31.025002L266.30624 31.025002L266.30624 32.509377Q267.44687 30.790627 269.60312 30.790627Q270.54062 30.790627 271.32187 31.134377Q272.11874 31.462502 272.50937 32.009377Q272.9 32.55625 273.05624 33.30625Q273.15 33.80625 273.15 35.025L273.15 41.4L271.38437 41.4L271.38437 35.0875Q271.38437 34.009377 271.18124 33.478127Q270.97812 32.946877 270.44687 32.634377Q269.93124 32.321877 269.22812 32.321877Q268.10312 32.321877 267.29062 33.040627Q266.47812 33.74375 266.47812 35.728127L266.47812 41.4L264.7125 41.4ZM279.55624 39.821877L279.80624 41.384377Q279.07187 41.540627 278.47812 41.540627Q277.525 41.540627 276.99374 41.24375Q276.47812 40.93125 276.25937 40.446877Q276.04062 39.946877 276.04062 38.36875L276.04062 32.4L274.75937 32.4L274.75937 31.025002L276.04062 31.025002L276.04062 28.462502L277.79062 27.400002L277.79062 31.025002L279.55624 31.025002L279.55624 32.4L277.79062 32.4L277.79062 38.4625Q277.79062 39.2125 277.88437 39.43125Q277.97812 39.634377 278.18124 39.775Q278.4 39.9 278.79062 39.9Q279.07187 39.9 279.55624 39.821877ZM289.3375 41.4L287.7125 41.4L287.7125 27.087502L289.4625 27.087502L289.4625 32.196877Q290.5875 30.790627 292.30624 30.790627Q293.25937 30.790627 294.11874 31.181252Q294.97812 31.571877 295.525 32.275Q296.07187 32.9625 296.38437 33.946877Q296.69687 34.93125 296.69687 36.05625Q296.69687 38.728127 295.38437 40.18125Q294.07187 41.634377 292.22812 41.634377Q290.38437 41.634377 289.3375 40.103127L289.3375 41.4ZM289.32187 36.134377Q289.32187 37.99375 289.82187 38.8375Q290.66562 40.18125 292.07187 40.18125Q293.22812 40.18125 294.05624 39.18125Q294.9 38.18125 294.9 36.196877Q294.9 34.165627 294.0875 33.2125Q293.29062 32.24375 292.15 32.24375Q290.99374 32.24375 290.15 33.24375Q289.32187 34.24375 289.32187 36.134377ZM298.63437 45.4L298.44687 43.74375Q299.025 43.9 299.44687 43.9Q300.04062 43.9 300.38437 43.696877Q300.74374 43.509377 300.9625 43.165627Q301.13437 42.9 301.50937 41.853127Q301.55624 41.696877 301.66562 41.415627L297.72812 31.025002L299.61874 31.025002L301.775 37.040627Q302.19687 38.18125 302.525 39.43125Q302.8375 38.228127 303.24374 37.071877L305.4625 31.025002L307.22812 31.025002L303.275 41.571877Q302.65 43.290627 302.29062 43.93125Q301.82187 44.80625 301.2125 45.196877Q300.61874 45.603127 299.775 45.603127Q299.25937 45.603127 298.63437 45.4ZM325.16562 36.384377L327.05624 36.853127Q326.4625 39.196877 324.91562 40.43125Q323.36874 41.65 321.11874 41.65Q318.80624 41.65 317.35312 40.7125Q315.91562 39.759377 315.15 37.978127Q314.4 36.18125 314.4 34.134377Q314.4 31.900002 315.24374 30.243752Q316.10312 28.571877 317.68124 27.712502Q319.25937 26.837502 321.15 26.837502Q323.30624 26.837502 324.75937 27.931252Q326.22812 29.025002 326.80624 31.009377L324.94687 31.446877Q324.44687 29.884377 323.49374 29.181252Q322.55624 28.462502 321.11874 28.462502Q319.4625 28.462502 318.35312 29.259377Q317.24374 30.040627 316.79062 31.384377Q316.35312 32.7125 316.35312 34.11875Q316.35312 35.946877 316.88437 37.321877Q317.41562 38.68125 318.54062 39.353127Q319.66562 40.025 320.9625 40.025Q322.55624 40.025 323.66562 39.103127Q324.775 38.18125 325.16562 36.384377ZM328.07187 36.2125Q328.07187 33.3375 329.66562 31.946877Q331.00937 30.790627 332.93124 30.790627Q335.07187 30.790627 336.41562 32.196877Q337.775 33.603127 337.775 36.071877Q337.775 38.071877 337.18124 39.228127Q336.5875 40.36875 335.43124 41.009377Q334.29062 41.634377 332.93124 41.634377Q330.74374 41.634377 329.4 40.24375Q328.07187 38.8375 328.07187 36.2125ZM329.86874 36.2125Q329.86874 38.2125 330.72812 39.196877Q331.60312 40.18125 332.93124 40.18125Q334.24374 40.18125 335.10312 39.196877Q335.97812 38.196877 335.97812 36.15Q335.97812 34.228127 335.10312 33.24375Q334.22812 32.24375 332.93124 32.24375Q331.60312 32.24375 330.72812 33.24375Q329.86874 34.228127 329.86874 36.2125ZM346.50937 41.4L346.50937 39.86875Q345.30624 41.634377 343.22812 41.634377Q342.30624 41.634377 341.50937 41.290627Q340.7125 40.93125 340.32187 40.4Q339.94687 39.86875 339.79062 39.0875Q339.68124 38.571877 339.68124 37.446877L339.68124 31.025002L341.43124 31.025002L341.43124 36.775Q341.43124 38.15 341.54062 38.634377Q341.7125 39.321877 342.24374 39.728127Q342.79062 40.11875 343.57187 40.11875Q344.36874 40.11875 345.05624 39.7125Q345.75937 39.30625 346.04062 38.61875Q346.3375 37.915627 346.3375 36.5875L346.3375 31.025002L348.0875 31.025002L348.0875 41.4L346.50937 41.4ZM350.7125 41.4L350.7125 31.025002L352.30624 31.025002L352.30624 32.509377Q353.44687 30.790627 355.60312 30.790627Q356.54062 30.790627 357.32187 31.134377Q358.11874 31.462502 358.50937 32.009377Q358.9 32.55625 359.05624 33.30625Q359.15 33.80625 359.15 35.025L359.15 41.4L357.38437 41.4L357.38437 35.0875Q357.38437 34.009377 357.18124 33.478127Q356.97812 32.946877 356.44687 32.634377Q355.93124 32.321877 355.22812 32.321877Q354.10312 32.321877 353.29062 33.040627Q352.47812 33.74375 352.47812 35.728127L352.47812 41.4L350.7125 41.4ZM365.55624 39.821877L365.80624 41.384377Q365.07187 41.540627 364.47812 41.540627Q363.525 41.540627 362.99374 41.24375Q362.47812 40.93125 362.25937 40.446877Q362.04062 39.946877 362.04062 38.36875L362.04062 32.4L360.75937 32.4L360.75937 31.025002L362.04062 31.025002L362.04062 28.462502L363.79062 27.400002L363.79062 31.025002L365.55624 31.025002L365.55624 32.4L363.79062 32.4L363.79062 38.4625Q363.79062 39.2125 363.88437 39.43125Q363.97812 39.634377 364.18124 39.775Q364.4 39.9 364.79062 39.9Q365.07187 39.9 365.55624 39.821877ZM367.69687 41.4L367.69687 31.025002L369.275 31.025002L369.275 32.603127Q369.88437 31.493752 370.4 31.150002Q370.91562 30.790627 371.525 30.790627Q372.41562 30.790627 373.3375 31.353127L372.72812 32.99375Q372.0875 32.603127 371.44687 32.603127Q370.86874 32.603127 370.4 32.9625Q369.94687 33.30625 369.74374 33.915627Q369.4625 34.853127 369.4625 35.9625L369.4625 41.4L367.69687 41.4ZM374.63437 45.4L374.44687 43.74375Q375.025 43.9 375.44687 43.9Q376.04062 43.9 376.38437 43.696877Q376.74374 43.509377 376.9625 43.165627Q377.13437 42.9 377.50937 41.853127Q377.55624 41.696877 377.66562 41.415627L373.72812 31.025002L375.61874 31.025002L377.775 37.040627Q378.19687 38.18125 378.525 39.43125Q378.8375 38.228127 379.24374 37.071877L381.4625 31.025002L383.22812 31.025002L379.275 41.571877Q378.65 43.290627 378.29062 43.93125Q377.82187 44.80625 377.2125 45.196877Q376.61874 45.603127 375.775 45.603127Q375.25937 45.603127 374.63437 45.4ZM385.18124 41.4L385.18124 39.4L387.18124 39.4L387.18124 41.4Q387.18124 42.509377 386.79062 43.18125Q386.4 43.86875 385.55624 44.228127L385.05624 43.478127Q385.61874 43.24375 385.88437 42.759377Q386.15 42.290627 386.18124 41.4L385.18124 41.4ZM400.97812 41.4L400.97812 35.3375L395.4625 27.087502L397.75937 27.087502L400.5875 31.400002Q401.36874 32.603127 402.04062 33.821877Q402.68124 32.696877 403.60312 31.290627L406.38437 27.087502L408.5875 27.087502L402.86874 35.3375L402.86874 41.4L400.97812 41.4ZM416.82187 38.05625L418.63437 38.290627Q418.2125 39.86875 417.04062 40.759377Q415.88437 41.634377 414.07187 41.634377Q411.80624 41.634377 410.4625 40.24375Q409.13437 38.8375 409.13437 36.30625Q409.13437 33.68125 410.47812 32.24375Q411.82187 30.790627 413.97812 30.790627Q416.05624 30.790627 417.36874 32.2125Q418.69687 33.61875 418.69687 36.196877Q418.69687 36.353127 418.68124 36.665627L410.94687 36.665627Q411.04062 38.36875 411.91562 39.275Q412.79062 40.18125 414.0875 40.18125Q415.05624 40.18125 415.72812 39.68125Q416.41562 39.165627 416.82187 38.05625ZM411.04062 35.2125L416.8375 35.2125Q416.72812 33.915627 416.18124 33.259377Q415.3375 32.24375 413.99374 32.24375Q412.79062 32.24375 411.9625 33.05625Q411.13437 33.853127 411.04062 35.2125ZM427.49374 40.11875Q426.50937 40.946877 425.60312 41.290627Q424.69687 41.634377 423.66562 41.634377Q421.9625 41.634377 421.04062 40.80625Q420.11874 39.9625 420.11874 38.665627Q420.11874 37.9 420.4625 37.275Q420.82187 36.65 421.38437 36.275Q421.94687 35.884377 422.65 35.68125Q423.16562 35.55625 424.2125 35.415627Q426.3375 35.165627 427.3375 34.821877Q427.35312 34.4625 427.35312 34.353127Q427.35312 33.290627 426.85312 32.8375Q426.18124 32.24375 424.85312 32.24375Q423.60312 32.24375 423.00937 32.68125Q422.43124 33.11875 422.15 34.228127L420.43124 33.99375Q420.66562 32.884377 421.19687 32.2125Q421.72812 31.525002 422.74374 31.165627Q423.75937 30.790627 425.10312 30.790627Q426.43124 30.790627 427.25937 31.103127Q428.0875 31.415627 428.47812 31.900002Q428.86874 32.36875 429.025 33.0875Q429.11874 33.540627 429.11874 34.7125L429.11874 37.05625Q429.11874 39.509377 429.22812 40.165627Q429.3375 40.80625 429.68124 41.4L427.8375 41.4Q427.57187 40.853127 427.49374 40.11875ZM427.3375 36.196877Q426.38437 36.5875 424.4625 36.853127Q423.38437 37.009377 422.93124 37.2125Q422.49374 37.4 422.24374 37.775Q421.99374 38.15 421.99374 38.61875Q421.99374 39.321877 422.525 39.790627Q423.05624 40.259377 424.0875 40.259377Q425.10312 40.259377 425.88437 39.821877Q426.68124 39.36875 427.05624 38.603127Q427.3375 37.99375 427.3375 36.8375L427.3375 36.196877ZM431.69687 41.4L431.69687 31.025002L433.275 31.025002L433.275 32.603127Q433.88437 31.493752 434.4 31.150002Q434.91562 30.790627 435.525 30.790627Q436.41562 30.790627 437.3375 31.353127L436.72812 32.99375Q436.0875 32.603127 435.44687 32.603127Q434.86874 32.603127 434.4 32.9625Q433.94687 33.30625 433.74374 33.915627Q433.4625 34.853127 433.4625 35.9625L433.4625 41.4L431.69687 41.4Z" fill-rule="nonzero"/></svg>